{"glyphs":{"0":{"ha":610,"x_min":14,"x_max":606,"o":"m 458 1025 q 460 1032 458 1026 q 462 1040 461 1038 q 464 1047 463 1042 q 467 1053 465 1051 q 471 1058 468 1054 q 476 1062 474 1063 q 482 1064 478 1061 q 490 1064 486 1067 q 506 1058 501 1063 q 511 1044 510 1054 q 513 1011 513 1035 q 506 944 513 960 q 531 858 499 929 q 596 617 588 733 q 563 424 604 500 q 553 397 553 408 q 522 346 553 385 q 476 283 476 283 q 373 218 463 264 q 246 164 283 172 q 187 167 211 158 q 129 207 163 176 q 90 257 103 232 q 51 360 76 282 q 19 474 25 440 q 14 576 14 507 q 28 769 14 697 q 75 896 42 840 q 135 978 111 957 q 214 1019 160 1000 q 292 1034 260 1035 q 361 1017 325 1033 q 418 1009 382 1006 q 458 1025 454 1013 m 349 960 q 240 971 301 992 q 133 888 179 950 q 100 833 108 856 q 82 747 92 810 q 88 433 54 561 q 124 322 106 363 q 167 260 143 281 q 226 236 192 240 q 272 240 250 233 q 343 272 293 247 q 415 316 393 299 q 467 375 436 333 q 535 510 521 447 q 531 661 549 572 q 500 767 519 721 q 457 838 481 813 q 411 864 433 864 q 391 874 400 864 q 376 898 382 883 q 371 928 371 913 q 349 960 371 947 z "},"1":{"ha":493,"x_min":7,"x_max":492,"o":"m 235 997 q 240 1007 236 1000 q 245 1017 243 1014 q 251 1026 247 1021 q 258 1034 254 1032 q 265 1037 261 1036 q 274 1034 269 1038 q 285 1025 279 1031 q 290 954 297 1011 q 287 920 289 940 q 283 883 285 900 q 281 856 282 865 q 276 664 275 789 q 285 517 278 539 q 299 410 294 485 q 307 325 303 332 q 340 317 313 317 q 389 325 367 317 q 460 305 428 340 q 476 228 492 269 q 462 208 469 208 q 443 224 454 207 q 385 242 432 240 q 329 249 338 242 q 186 258 319 254 q 31 282 39 263 q 42 306 28 290 q 69 322 51 318 q 136 328 88 326 l 215 331 l 224 371 q 222 508 233 413 q 221 803 204 686 q 224 875 231 864 q 210 872 222 879 q 182 850 197 864 q 86 791 135 807 q 21 794 38 775 q 19 828 7 811 q 57 846 32 846 q 113 867 85 846 q 182 931 140 888 q 235 997 224 975 z "},"2":{"ha":536,"x_min":13,"x_max":526,"o":"m 156 1067 q 231 1110 210 1110 q 299 1088 251 1111 q 372 1040 347 1064 q 433 962 404 1011 q 471 875 463 913 q 476 826 478 844 q 460 764 474 808 q 406 672 440 703 q 288 604 372 640 q 174 539 222 576 q 101 456 126 501 q 76 363 76 411 q 81 308 74 321 q 340 260 110 261 q 424 263 404 260 q 463 279 444 267 q 488 294 482 294 q 507 283 494 294 q 524 249 521 271 q 515 207 526 226 q 487 194 510 196 q 367 193 464 192 q 188 203 257 194 q 80 230 118 213 q 28 276 42 247 q 14 349 15 304 q 25 428 13 393 q 83 523 39 465 q 156 603 126 581 q 256 651 192 626 q 358 701 322 678 q 410 754 394 725 q 421 825 425 783 q 366 954 417 888 q 263 1035 315 1021 q 153 991 210 1049 q 94 867 96 933 q 97 849 94 856 q 102 840 99 842 q 113 838 106 838 q 136 846 132 838 q 178 864 142 854 q 242 839 242 882 q 226 808 242 825 q 199 792 211 792 q 149 774 185 792 q 83 756 114 757 q 40 768 51 754 q 33 797 33 778 q 42 869 33 815 q 75 981 54 946 q 156 1067 96 1017 z "},"3":{"ha":544,"x_min":10,"x_max":538,"o":"m 133 976 q 233 1013 151 989 q 340 1038 314 1038 q 450 981 382 1039 q 529 876 518 922 q 526 805 538 847 q 490 725 514 763 q 439 672 465 688 q 416 653 417 661 q 433 624 415 644 q 475 551 456 600 q 500 457 494 501 q 480 310 510 369 q 371 201 450 251 l 321 169 l 229 181 q 81 192 151 190 l 26 193 l 28 229 q 37 326 33 311 q 56 342 40 340 l 57 342 q 76 337 68 344 q 94 304 83 329 q 119 258 113 263 q 233 247 128 253 q 326 245 307 243 q 369 263 346 247 q 426 324 411 292 q 442 415 442 357 q 437 481 442 461 q 414 533 432 501 q 367 592 386 582 q 246 613 347 603 q 159 624 174 619 q 142 644 144 628 q 147 675 139 665 q 256 685 156 683 q 389 703 354 686 q 420 724 406 711 q 447 751 435 736 q 466 784 458 767 q 476 818 474 801 q 472 856 479 842 q 426 910 464 871 q 374 960 388 951 q 326 968 360 968 q 121 881 210 969 q 69 808 65 829 q 67 790 71 794 q 44 786 63 786 q 21 791 26 786 q 14 811 15 796 q 45 895 10 846 q 133 976 81 944 m 186 860 q 190 881 168 871 q 214 875 211 888 q 204 860 214 865 q 186 860 194 856 z "},"4":{"ha":636,"x_min":13,"x_max":629,"o":"m 365 1010 q 428 1054 407 1057 q 444 1038 442 1053 q 438 979 446 1024 q 425 786 433 949 q 408 551 413 589 q 406 492 404 506 q 418 475 408 479 q 490 477 439 467 q 567 504 540 488 q 597 522 589 519 q 614 514 604 524 q 620 476 628 499 q 590 443 613 453 q 553 424 561 432 q 475 410 540 414 q 406 401 410 407 q 399 264 400 396 q 388 122 397 160 q 353 89 378 85 q 329 160 336 93 q 336 261 322 228 q 351 357 350 294 l 356 421 l 318 428 q 218 435 278 435 q 86 451 153 436 q 27 469 38 463 q 14 492 17 475 q 16 513 13 501 q 26 535 19 524 q 40 557 33 547 q 53 577 46 567 q 63 592 60 588 q 225 817 74 610 q 310 936 296 911 q 365 1010 319 960 m 383 835 q 378 938 388 938 q 368 928 368 938 q 339 886 368 919 q 296 832 307 849 q 200 704 279 807 q 90 525 79 544 q 251 496 104 504 q 335 494 317 492 q 358 506 353 496 q 383 835 368 525 z "},"5":{"ha":618,"x_min":14,"x_max":606,"o":"m 567 1072 q 597 1081 589 1085 q 606 1057 606 1078 q 595 1026 606 1040 q 554 986 585 1011 q 507 950 518 954 q 465 953 496 946 q 349 950 422 963 q 232 938 278 938 q 164 915 178 938 q 144 799 150 892 q 147 690 139 690 q 174 704 156 690 q 251 737 197 719 q 319 751 304 754 q 394 704 353 743 q 465 616 435 665 q 501 528 496 567 q 475 378 508 478 q 403 231 442 278 l 365 183 l 271 176 q 157 174 178 168 q 74 238 135 179 q 14 314 14 297 q 28 344 14 333 q 67 351 43 354 q 88 343 83 349 q 90 318 92 338 q 96 288 89 299 q 125 261 103 278 q 171 238 153 242 q 253 233 189 233 q 335 238 319 233 q 368 261 350 242 q 424 383 393 288 q 449 471 447 453 q 440 526 451 489 q 414 580 432 551 q 375 631 396 608 q 331 667 354 653 q 292 682 308 682 q 248 669 276 682 q 190 637 219 657 q 140 597 160 617 q 97 565 111 569 q 69 575 82 561 q 74 628 60 589 q 88 718 88 669 q 96 836 89 769 q 96 931 103 904 q 100 979 88 961 q 122 997 110 994 q 182 994 135 999 q 320 1002 233 992 q 426 1014 407 1013 q 517 1039 488 1017 q 567 1072 549 1060 z "},"6":{"ha":617,"x_min":-4,"x_max":608,"o":"m 589 864 q 547 841 583 864 q 506 818 510 818 q 483 852 494 818 q 471 921 471 886 q 469 954 471 940 q 460 983 467 968 q 442 1014 453 999 q 414 1050 432 1029 q 350 1081 393 1076 q 163 992 250 1092 q 72 581 28 840 q 107 482 94 472 q 124 510 110 485 q 160 567 139 536 q 200 621 181 597 q 229 650 219 644 q 299 681 249 664 q 392 690 347 697 q 467 654 436 683 l 494 626 l 492 515 q 475 388 489 422 q 410 306 461 353 q 359 274 382 281 q 257 258 336 267 q 185 271 210 254 q 118 351 160 288 q 59 453 74 418 q 29 565 44 489 q 34 854 -4 722 q 175 1069 72 986 l 226 1111 l 431 1111 l 463 1078 q 526 942 525 1008 q 533 900 526 906 q 561 911 539 894 q 583 924 576 922 q 597 915 589 925 q 604 885 607 906 q 589 864 601 864 m 421 617 q 307 631 382 654 q 250 603 271 619 q 203 547 229 586 q 206 474 163 486 q 225 463 225 469 q 191 444 225 453 q 142 439 157 435 q 126 440 126 444 q 171 369 126 436 q 206 328 193 338 q 239 317 219 318 q 310 325 258 317 q 394 363 364 333 q 436 424 426 394 q 443 521 446 454 q 439 571 442 553 q 433 599 436 589 q 421 617 429 610 z "},"7":{"ha":561,"x_min":13,"x_max":568,"o":"m 74 1019 q 146 1075 136 1075 q 158 1062 156 1075 q 156 1032 161 1049 q 140 1006 151 1015 q 122 981 122 989 q 153 974 126 974 q 226 984 181 975 q 311 1006 271 993 q 456 1034 382 1026 q 540 1028 529 1042 q 518 890 567 994 q 487 817 501 856 q 451 739 472 778 q 365 526 378 586 q 338 449 358 500 q 288 274 288 339 q 264 192 288 229 q 218 164 240 156 q 206 185 207 168 q 215 213 204 201 q 232 278 224 222 q 276 414 240 338 q 320 529 301 471 q 365 647 339 588 q 406 746 406 738 q 415 771 406 756 q 449 860 421 781 q 482 960 476 940 q 451 969 483 968 q 374 963 419 969 q 294 944 329 956 q 169 916 235 924 q 58 917 103 908 q 24 928 35 921 q 15 947 13 935 q 31 976 17 958 q 74 1019 44 993 z "},"8":{"ha":481,"x_min":13,"x_max":471,"o":"m 371 1094 q 368 1110 358 1108 q 394 1111 375 1111 q 430 1105 422 1111 q 451 1068 438 1099 q 468 956 471 1024 q 443 857 465 889 q 424 821 424 831 q 396 760 424 814 q 357 693 368 706 q 356 676 351 686 q 381 647 361 667 q 456 482 438 589 q 450 377 463 440 q 417 282 438 314 q 367 235 394 247 q 264 213 340 222 l 183 203 l 136 253 q 67 360 100 292 q 38 458 33 429 q 64 520 42 482 q 118 593 86 558 q 158 646 158 639 q 131 654 158 654 q 46 685 76 654 q 14 772 15 717 q 31 854 14 813 q 90 953 49 896 q 171 1040 138 1015 q 264 1081 204 1064 q 323 1092 310 1092 q 353 1081 336 1092 q 382 1075 381 1063 q 371 1094 381 1083 m 376 1001 q 314 1038 338 1039 q 206 1008 240 1033 q 142 940 185 994 q 89 856 100 885 q 76 784 76 825 q 88 732 75 743 q 197 714 100 721 l 294 708 l 317 739 q 379 847 344 775 q 414 939 414 918 q 376 1001 414 963 m 322 614 q 281 634 292 633 q 242 621 271 635 q 169 567 208 604 q 108 494 129 529 l 85 453 l 103 414 q 119 378 108 401 q 135 341 129 354 q 153 312 140 328 q 181 285 165 296 q 217 264 204 265 q 279 271 229 263 q 364 294 342 281 q 399 346 386 308 q 408 426 413 386 q 382 525 404 467 q 355 583 367 567 q 322 614 343 600 z "},"9":{"ha":524,"x_min":6,"x_max":513,"o":"m 442 1053 q 484 1073 471 1072 q 507 1057 497 1074 q 510 1040 513 1046 q 494 1025 507 1033 q 467 976 472 1010 q 458 622 460 943 q 446 285 456 303 q 429 224 438 268 q 348 122 421 157 q 186 104 275 86 q 104 115 139 115 q 63 126 75 115 q 50 163 50 138 q 82 199 50 196 q 167 175 114 203 q 240 162 196 161 q 315 178 285 163 q 377 269 358 201 q 401 490 396 336 q 400 646 407 639 q 329 586 396 656 q 273 531 292 546 q 239 517 254 517 q 94 594 182 517 q 45 645 57 628 q 25 693 33 663 q 19 860 6 782 q 75 982 33 939 q 120 1014 100 1007 q 219 1033 140 1021 q 369 1040 332 1050 q 408 1035 396 1033 q 442 1053 419 1038 m 371 982 q 316 991 357 990 q 242 986 275 992 q 149 961 178 974 q 100 925 119 949 q 76 883 81 901 q 69 804 72 864 q 69 726 67 746 q 88 686 72 707 q 158 624 108 657 q 232 590 208 590 q 306 633 260 590 q 374 721 351 676 q 392 770 390 754 q 388 824 393 786 q 383 925 376 878 q 385 966 388 956 q 371 982 382 976 z "}," ":{"ha":583,"x_min":0,"x_max":0,"o":""},"!":{"ha":113,"x_min":13,"x_max":101,"o":"m 42 968 l 47 1111 l 100 1111 l 96 958 q 80 519 85 589 q 57 438 75 450 q 37 428 43 428 q 22 436 31 428 q 14 465 14 443 q 19 544 14 486 q 30 674 26 613 q 36 825 33 735 q 42 968 39 915 m 47 364 q 67 380 54 379 q 90 367 79 381 q 92 297 100 356 q 88 221 82 242 q 81 192 90 208 q 56 168 71 176 q 35 167 42 160 q 25 199 25 178 q 33 292 25 231 q 47 364 40 353 z "},"\"":{"ha":593,"x_min":8,"x_max":582,"o":"m 154 1072 l 140 1111 l 181 1111 q 209 1109 201 1111 q 221 1101 217 1107 q 231 1078 225 1096 q 236 1011 240 1042 q 211 838 217 864 q 185 789 206 813 q 146 731 158 761 q 86 672 128 690 q 22 675 44 653 q 17 701 10 688 q 71 760 25 714 q 108 799 94 783 q 129 831 121 815 q 143 865 138 846 q 164 981 161 924 q 154 1072 167 1039 m 507 1083 l 497 1111 l 581 1111 l 576 1036 q 565 964 572 992 q 536 893 557 936 q 481 813 503 826 q 442 765 460 799 q 419 696 425 732 q 403 644 413 654 q 372 640 394 633 q 337 671 339 653 q 358 739 335 689 q 426 843 389 801 q 498 969 474 897 q 507 1083 522 1040 z "},"#":{"ha":992,"x_min":13,"x_max":982,"o":"m 500 1100 q 499 1111 488 1110 l 518 1111 q 557 1097 553 1111 q 529 981 563 1083 q 494 850 496 875 l 492 824 l 588 826 q 689 839 685 831 q 711 931 696 850 q 740 1064 729 1022 q 755 1103 749 1094 q 776 1111 761 1111 q 792 1109 786 1111 q 796 1104 797 1107 q 767 979 790 1097 q 743 846 743 861 q 753 833 743 835 q 801 833 763 831 q 856 833 842 838 q 903 808 871 829 q 949 763 942 781 q 939 726 957 746 q 919 713 929 715 q 885 714 908 710 q 835 738 849 721 q 768 761 821 756 q 756 763 764 761 q 716 756 725 767 q 683 678 707 746 q 674 650 676 660 q 636 494 618 500 q 772 488 646 490 q 834 485 815 486 q 876 481 853 485 q 906 474 899 478 q 925 459 914 471 q 942 436 936 447 q 958 401 947 425 q 980 342 979 358 q 964 306 981 326 q 947 291 953 293 q 932 297 942 289 q 907 344 918 308 q 895 375 901 365 q 881 393 889 385 q 851 404 872 401 q 805 408 829 407 q 729 410 781 410 l 596 413 l 578 357 q 561 261 561 300 q 533 189 560 219 l 507 158 l 497 181 q 501 251 489 199 q 528 349 514 304 q 538 397 542 394 q 508 403 533 401 q 417 413 469 406 l 350 419 l 342 393 q 317 300 332 371 q 309 263 311 275 q 307 242 307 251 q 309 230 307 233 q 317 222 311 226 q 326 206 328 214 q 310 167 325 197 q 263 100 288 122 q 240 83 247 85 q 225 90 233 82 q 217 106 217 99 q 225 135 217 114 q 244 201 239 171 q 274 314 249 226 q 281 414 303 410 l 265 413 q 164 401 253 408 q 61 389 75 394 q 22 393 38 379 q 14 408 14 403 q 25 425 14 414 q 79 453 43 444 q 204 467 115 461 q 319 482 308 472 q 372 617 332 497 q 406 742 413 738 q 372 735 399 746 q 221 724 346 725 q 92 732 118 724 q 69 772 65 740 l 72 796 l 232 796 q 403 807 375 796 q 449 867 432 818 q 463 915 451 878 q 503 1047 492 1013 q 510 1083 511 1075 q 500 1100 510 1092 m 654 747 q 586 759 646 756 q 494 757 526 763 q 471 749 479 756 q 456 731 463 743 q 443 690 450 718 q 408 594 425 638 q 385 514 386 539 q 388 490 383 496 q 413 479 393 485 q 508 474 444 469 l 572 476 l 592 540 q 638 671 614 611 q 654 747 664 738 z "},"$":{"ha":582,"x_min":14,"x_max":576,"o":"m 239 1089 q 272 1108 253 1106 q 344 1103 292 1111 q 406 1078 371 1099 q 469 1029 440 1057 q 522 969 499 1001 q 549 911 544 936 q 564 867 554 879 q 563 831 575 853 q 533 811 551 808 q 515 826 524 813 q 493 878 506 840 q 429 985 474 939 q 328 1035 365 1049 q 311 985 304 1026 q 319 779 318 957 q 322 628 319 653 q 339 601 325 603 q 376 594 353 600 q 477 510 419 585 q 535 389 535 435 q 494 261 535 318 q 393 189 454 204 q 335 165 346 178 q 325 110 325 153 q 326 85 325 94 q 328 69 326 75 q 334 58 331 63 q 343 51 338 54 l 363 42 l 343 15 q 303 -17 326 -8 q 267 -14 279 -26 q 256 63 257 -4 l 254 129 l 210 147 q 133 186 160 169 q 90 207 101 207 q 47 239 79 207 q 14 282 14 271 q 31 311 14 294 q 65 319 46 325 q 96 289 83 313 q 162 244 106 272 q 238 218 218 215 q 253 228 249 219 q 263 265 258 238 q 264 488 276 379 l 258 536 l 206 560 q 125 611 156 581 q 79 698 99 639 q 60 808 60 757 q 74 902 60 846 q 106 992 88 958 q 154 1037 114 1008 q 210 1065 194 1065 q 239 1089 224 1065 m 258 913 q 238 1011 249 1011 q 188 983 218 1011 q 143 924 158 956 q 138 721 93 818 q 165 672 153 686 q 201 644 176 657 q 250 631 242 625 q 264 736 261 638 q 258 913 267 835 m 440 446 q 399 490 417 475 q 350 511 381 504 q 330 513 335 515 q 325 501 325 511 q 328 247 319 254 q 383 258 333 240 q 447 290 432 276 q 467 360 465 307 q 462 408 467 392 q 440 446 457 425 z "},"%":{"ha":986,"x_min":14,"x_max":974,"o":"m 797 1106 q 872 1110 803 1111 l 942 1107 l 942 1079 q 935 1056 942 1060 q 896 1051 929 1051 q 850 1044 861 1051 q 807 992 839 1038 q 715 869 794 976 q 608 707 608 728 q 588 664 608 697 q 475 508 564 625 q 388 363 442 464 q 333 242 333 261 q 299 192 333 229 q 232 147 267 156 q 169 160 197 139 q 152 179 154 172 q 156 203 150 186 q 171 225 163 221 q 210 229 179 229 q 262 244 247 229 q 313 335 276 260 q 479 588 369 450 q 526 658 501 617 q 574 742 550 700 q 621 814 597 785 q 701 924 661 867 q 765 1024 740 982 q 790 1078 790 1067 q 797 1106 790 1099 m 357 1075 q 391 1098 381 1099 q 411 1071 401 1097 q 413 1046 417 1054 q 390 1022 410 1038 l 361 997 l 381 947 q 404 832 407 876 q 363 710 401 788 q 192 603 314 610 q 140 604 157 600 q 89 626 122 608 q 29 683 44 653 q 14 775 14 714 q 26 873 14 835 q 74 957 39 911 q 150 1022 111 1004 q 263 1046 189 1040 q 324 1053 308 1049 q 357 1075 340 1058 m 293 947 q 286 947 293 947 q 265 969 279 947 q 235 992 250 992 q 173 969 210 992 q 110 914 136 946 q 85 880 93 893 q 75 852 78 867 q 71 808 72 838 q 124 678 64 707 q 208 665 165 654 q 285 703 251 675 q 335 776 318 731 q 342 867 351 821 q 320 924 333 901 q 293 947 307 947 m 768 635 q 824 641 783 644 q 876 626 865 638 q 907 618 886 618 q 940 597 926 618 q 956 556 949 585 q 969 494 964 528 q 974 432 974 461 q 967 382 974 400 q 932 326 960 364 q 897 285 911 299 q 865 260 883 271 q 803 228 846 249 q 721 194 744 201 q 664 190 697 188 q 621 196 631 192 q 610 213 611 200 q 635 251 607 232 q 656 272 653 264 q 653 300 658 281 q 650 420 644 329 q 668 540 656 511 q 705 588 676 561 q 768 635 733 614 m 872 560 q 872 566 872 563 q 869 572 871 569 q 865 576 868 574 q 860 578 863 578 q 853 581 858 579 q 846 582 849 582 q 837 583 843 582 q 828 585 831 585 q 804 587 815 589 q 783 578 793 585 q 756 557 774 572 q 728 528 736 539 q 717 505 721 518 q 708 461 713 492 q 704 362 701 408 q 718 303 707 315 q 756 285 726 292 q 835 308 790 278 q 907 388 881 339 q 913 463 919 410 q 890 532 907 517 q 872 560 872 546 z "},"&":{"ha":806,"x_min":13,"x_max":794,"o":"m 179 1046 l 213 1111 l 468 1111 q 558 1015 513 1063 l 553 947 q 528 840 549 883 q 447 729 507 796 q 374 658 401 676 q 307 632 347 640 q 270 619 275 626 q 278 586 265 611 q 290 550 290 557 q 311 517 293 539 q 357 472 322 503 q 424 415 392 442 q 461 389 456 389 q 518 433 467 389 q 633 521 571 479 q 711 563 696 563 q 754 586 729 563 q 788 608 782 608 q 793 572 793 608 q 788 540 793 554 q 772 513 783 525 q 744 492 761 501 q 704 474 728 482 q 605 411 664 458 q 546 346 546 364 q 588 315 546 333 q 617 263 649 289 q 577 260 607 256 q 522 278 547 264 q 482 287 499 290 q 432 261 465 283 q 386 233 393 233 q 357 215 381 233 q 302 187 340 204 q 226 156 264 169 q 178 143 189 143 q 139 156 164 143 q 90 187 114 168 q 54 222 67 206 q 22 331 36 250 q 14 407 14 383 q 22 463 14 431 q 114 606 46 554 q 132 619 121 611 q 151 635 143 628 q 164 644 160 642 q 178 661 176 654 q 172 686 179 668 q 150 787 158 719 q 143 910 142 854 q 151 978 144 954 q 179 1046 157 1001 m 453 1035 q 346 1054 422 1050 q 275 1054 289 1057 q 244 1032 261 1051 q 197 915 204 989 q 213 746 189 840 q 233 682 228 690 q 253 681 238 674 q 308 700 269 690 q 404 768 350 711 q 483 858 464 831 q 506 921 501 886 q 453 1035 518 1001 m 219 575 q 199 590 206 590 q 142 545 188 590 q 83 474 97 500 q 69 433 71 450 q 72 375 67 415 q 83 301 78 324 q 96 267 88 279 q 121 243 104 254 q 178 226 150 225 q 260 246 207 226 q 356 295 304 263 q 410 340 408 328 q 342 413 410 350 q 254 518 274 478 q 219 575 233 558 z "},"(":{"ha":321,"x_min":14,"x_max":308,"o":"m 253 1101 q 281 1111 253 1111 q 308 1104 308 1111 q 261 1019 308 1096 q 146 786 167 861 q 101 624 114 676 q 83 533 88 572 q 74 426 78 494 q 74 326 71 351 q 93 253 76 300 q 132 164 118 183 q 190 114 147 140 q 256 88 233 88 q 281 79 281 88 q 256 45 281 67 q 215 24 231 24 q 141 69 200 24 q 75 132 82 115 q 26 274 39 224 q 14 382 14 325 q 51 632 15 514 q 88 763 69 685 q 124 867 104 826 q 200 1003 143 908 q 253 1101 253 1090 z "},")":{"ha":431,"x_min":11,"x_max":419,"o":"m 221 1104 q 252 1111 226 1111 q 307 1080 278 1111 q 361 994 336 1049 q 401 874 386 940 q 419 651 418 808 q 404 426 419 494 q 365 278 378 311 q 311 169 353 244 q 251 79 290 126 q 207 17 217 38 q 182 -10 200 4 q 146 -31 164 -24 q 121 -33 128 -39 q 64 -17 106 -25 q 14 8 17 -8 q 54 42 11 24 q 126 60 97 60 q 181 80 158 60 q 246 164 204 100 q 304 260 293 236 q 332 353 315 285 q 367 633 365 481 q 336 901 368 786 q 297 1001 318 968 q 240 1053 276 1033 q 216 1078 222 1063 q 221 1104 210 1094 z "},"*":{"ha":1036,"x_min":13,"x_max":1047,"o":"m 167 1110 q 233 1111 167 1111 q 285 1108 267 1111 q 313 1097 304 1104 q 321 1075 321 1089 q 342 1040 321 1061 q 369 1025 363 1019 q 369 1071 376 1033 l 364 1111 l 396 1111 q 425 1106 421 1111 q 433 1064 429 1100 q 458 1003 440 1001 q 468 1011 463 1003 q 471 1043 476 1025 q 487 1088 465 1065 q 536 1111 508 1111 l 567 1111 l 550 1050 q 528 950 532 985 l 521 913 l 593 901 q 706 893 660 890 q 811 892 742 894 q 940 883 881 889 q 1007 871 999 876 q 986 828 1047 846 q 743 822 935 814 q 682 814 694 824 q 675 772 665 803 q 711 721 685 742 q 742 686 742 699 q 763 661 742 674 l 783 646 l 757 622 q 721 600 733 600 q 610 686 710 600 q 496 771 503 779 q 494 767 494 769 q 518 664 494 761 q 555 496 551 525 q 542 450 558 467 q 505 441 519 428 q 485 500 490 454 q 458 634 479 553 q 428 725 438 715 q 402 720 421 733 q 335 658 383 707 q 248 588 272 599 q 208 603 224 578 q 210 625 201 613 q 256 669 219 638 q 313 731 313 721 q 340 774 314 743 q 366 820 374 811 q 297 824 358 829 q 115 817 203 815 q 14 847 14 819 q 18 861 14 854 q 48 878 25 874 q 158 885 71 882 q 310 900 290 889 q 326 914 325 908 q 315 939 326 919 q 233 1038 300 964 q 167 1110 167 1107 z "},"+":{"ha":1231,"x_min":11,"x_max":1219,"o":"m 625 1063 l 625 1111 l 692 1111 l 685 1056 q 675 998 681 1024 q 664 947 669 972 q 656 883 658 922 q 642 803 651 814 q 633 744 633 794 q 622 658 636 696 q 618 575 594 590 q 797 567 628 568 q 903 564 867 565 q 961 559 939 563 q 996 549 983 556 q 1075 538 1028 535 l 1122 540 l 1122 581 q 1139 631 1122 621 q 1169 624 1156 640 q 1182 579 1182 608 q 1200 544 1182 554 q 1218 524 1217 536 q 1206 499 1219 511 q 1192 467 1192 488 q 1169 434 1192 440 q 1064 432 1147 428 q 914 436 963 439 q 856 446 868 435 q 729 472 839 460 q 613 474 619 485 q 601 383 606 461 q 588 276 596 304 q 579 186 579 250 q 565 119 579 124 q 551 44 551 113 q 548 -16 551 -1 q 528 -47 544 -31 q 506 -65 511 -64 q 492 -54 500 -67 q 488 -15 481 -40 q 496 97 494 14 q 528 335 499 232 q 543 432 543 383 l 543 481 l 440 482 q 339 484 413 483 q 236 485 265 485 q 115 493 136 488 q 67 490 93 501 q 24 490 36 476 q 14 549 11 504 l 17 594 l 113 597 q 263 590 206 601 q 329 592 315 579 q 347 597 338 599 q 376 583 356 594 q 465 560 407 567 q 532 565 522 553 q 546 714 542 578 q 567 865 553 850 q 574 919 579 879 q 574 958 571 947 q 596 988 578 969 q 620 1017 615 1004 q 625 1063 625 1031 z "},",":{"ha":261,"x_min":11,"x_max":261,"o":"m 113 371 l 144 389 q 186 372 149 390 q 233 346 224 354 q 239 214 261 321 q 225 146 228 157 q 201 107 224 135 q 153 56 178 79 q 119 33 129 33 q 88 19 107 33 q 60 6 71 6 q 29 22 49 7 q 15 39 17 32 q 18 57 13 46 q 58 82 29 76 q 124 118 90 89 q 167 178 158 147 q 174 228 178 221 q 133 231 169 235 q 96 230 107 226 q 69 247 85 233 q 47 286 47 269 q 67 331 47 306 q 113 371 88 357 z "},"-":{"ha":833,"x_min":7,"x_max":822,"o":"m 583 614 q 669 604 592 621 q 775 597 732 590 l 818 601 l 819 546 l 821 490 l 788 490 q 617 485 751 493 q 150 482 349 471 q 43 489 63 489 q 18 508 28 490 q 22 544 8 528 q 56 557 35 561 q 89 565 72 551 q 213 589 103 576 q 457 606 322 601 q 583 614 581 610 z "},".":{"ha":222,"x_min":11,"x_max":210,"o":"m 47 364 q 67 368 49 368 q 106 367 85 368 q 146 364 126 365 q 167 363 165 363 q 194 344 178 361 q 210 306 210 331 q 194 224 210 281 q 173 187 188 197 q 146 189 158 176 q 96 197 138 197 q 31 215 54 197 q 15 233 17 226 q 19 254 13 239 q 36 317 29 272 q 47 364 42 356 z "},"/":{"ha":576,"x_min":10,"x_max":568,"o":"m 483 1089 q 536 1098 504 1113 q 564 1051 568 1083 q 553 1028 561 1033 q 513 1015 544 1022 q 447 988 467 1006 q 410 921 428 969 q 372 850 389 868 q 356 815 356 832 q 342 774 356 800 q 294 632 329 749 q 242 476 258 515 q 194 363 225 439 q 142 243 164 288 q 104 143 104 163 q 83 110 103 119 q 51 89 63 100 q 33 79 40 78 q 17 97 25 81 q 18 127 11 108 q 53 197 25 146 q 236 636 133 343 q 375 979 304 832 q 400 1040 393 1021 q 442 1071 410 1065 q 483 1089 472 1076 z "},":":{"ha":261,"x_min":11,"x_max":253,"o":"m 157 910 q 183 917 178 919 q 201 899 189 915 q 208 832 215 878 q 206 757 201 788 q 206 733 208 740 q 193 721 203 725 q 154 699 178 717 q 114 683 132 681 q 71 706 96 685 q 47 737 50 724 q 44 804 43 750 q 56 890 47 879 q 101 901 64 900 q 157 910 139 901 m 171 392 q 218 397 214 396 q 239 369 226 399 q 247 332 251 339 q 243 256 240 321 q 242 199 244 213 q 226 181 239 186 q 192 169 208 169 q 140 151 175 169 q 76 132 104 135 q 50 135 58 129 q 31 165 42 142 q 14 243 13 201 q 15 313 14 282 q 38 354 15 342 q 171 392 85 386 z "},";":{"ha":247,"x_min":7,"x_max":236,"o":"m 115 814 q 141 826 135 826 q 164 814 147 826 q 197 800 182 800 q 235 722 235 800 q 231 676 235 689 q 214 653 228 663 q 174 638 196 638 q 86 653 151 638 q 15 685 21 668 q 54 743 8 703 q 96 789 96 778 q 115 814 96 800 m 143 392 q 214 399 194 435 q 210 273 222 383 q 188 140 199 163 q 178 107 178 125 q 129 61 178 89 q 68 19 81 33 q 28 12 49 -4 q 21 56 8 28 q 40 79 32 79 q 90 104 57 79 q 125 144 122 129 q 136 181 129 165 q 119 207 143 197 q 100 219 110 210 q 86 239 90 229 q 96 315 76 264 q 143 392 115 367 z "},"<":{"ha":685,"x_min":14,"x_max":674,"o":"m 604 878 q 658 910 646 910 q 669 903 665 910 q 672 888 672 897 q 671 867 672 878 q 665 845 669 856 q 654 828 660 835 q 622 810 635 810 q 615 807 619 810 q 607 800 611 804 q 599 790 603 796 q 590 776 594 783 q 570 750 578 754 q 543 750 563 746 q 499 749 522 756 q 400 708 476 742 q 357 690 363 690 q 296 664 351 690 q 179 615 228 632 q 117 585 121 594 q 158 559 115 579 q 265 513 201 539 q 395 460 329 486 q 513 412 461 433 q 574 382 564 390 q 582 341 588 371 q 560 308 576 311 q 503 333 544 306 q 456 363 460 363 q 390 390 450 363 q 326 417 363 403 q 253 446 290 432 q 192 471 217 460 q 108 501 153 489 q 34 534 54 518 q 14 578 14 550 q 68 626 14 626 q 194 663 100 626 q 385 750 289 700 q 536 833 519 819 q 556 846 549 846 q 604 878 560 846 z "},"=":{"ha":1101,"x_min":13,"x_max":1094,"o":"m 329 701 q 836 692 358 713 q 1007 697 978 685 q 1055 707 1033 710 q 1086 689 1076 704 q 1085 667 1093 679 q 1047 626 1078 656 q 1003 590 1014 596 q 979 589 992 583 q 896 604 961 599 q 758 618 842 608 q 503 628 685 626 q 335 625 403 629 q 218 610 267 621 q 129 582 169 600 q 72 565 90 564 q 51 589 54 567 q 92 647 47 622 q 225 682 136 672 q 329 701 310 694 m 311 426 q 386 440 351 438 q 507 439 421 443 q 708 426 585 436 q 933 414 832 415 q 1083 401 1072 413 q 1082 358 1094 390 l 1069 325 l 988 331 q 890 334 965 331 q 765 342 815 338 q 676 353 714 346 q 469 362 610 364 q 282 347 328 360 q 186 326 233 333 q 116 294 156 321 q 53 235 76 267 q 26 215 40 215 q 14 233 15 215 q 22 257 13 250 q 32 286 32 261 q 51 329 32 306 q 100 372 71 353 q 158 397 129 392 q 226 407 207 407 q 311 426 247 407 z "},">":{"ha":807,"x_min":8,"x_max":796,"o":"m 46 824 q 85 850 69 846 q 144 853 100 854 q 246 832 208 853 q 306 807 283 811 q 383 765 333 800 q 553 681 435 731 q 743 614 671 632 q 782 596 765 610 q 794 578 793 586 q 788 544 796 569 q 769 508 781 521 q 717 474 757 496 q 506 343 629 426 q 354 261 385 261 q 290 235 333 261 q 239 192 247 210 q 223 170 232 175 q 194 165 214 165 q 174 167 181 165 q 165 174 168 169 q 160 189 163 178 q 183 233 157 213 q 278 279 208 253 q 568 432 396 326 q 667 490 660 490 q 700 510 675 490 q 725 537 725 531 q 697 558 725 543 q 623 590 669 572 q 525 626 576 608 q 360 700 433 656 q 275 746 278 746 q 253 757 272 746 q 217 778 235 768 q 193 786 199 789 q 133 779 183 781 q 51 769 83 776 q 26 767 33 765 q 15 778 19 768 q 46 824 10 794 z "},"?":{"ha":522,"x_min":-6,"x_max":514,"o":"m 110 1072 l 160 1110 l 289 1111 q 308 1111 296 1111 q 360 1111 346 1111 q 395 1108 375 1111 q 420 1102 415 1104 q 436 1088 425 1100 q 452 1067 447 1076 q 468 1033 457 1057 q 470 1029 469 1031 q 472 1025 471 1028 q 475 1021 474 1022 q 510 907 506 958 q 493 800 514 856 q 439 718 471 744 q 356 672 415 700 q 279 644 296 644 q 244 626 267 644 q 230 610 235 619 q 222 588 225 601 q 215 547 218 574 q 215 485 214 517 q 220 424 215 453 q 233 378 225 394 q 219 356 240 360 q 204 333 200 350 q 202 313 208 317 q 176 317 196 310 q 158 343 161 322 q 156 479 156 364 q 156 539 156 518 q 157 583 156 560 q 160 618 158 607 q 167 642 161 629 q 176 660 172 656 q 191 673 181 665 q 211 684 201 681 q 238 694 221 688 q 322 731 281 711 q 389 767 363 750 q 422 793 415 783 q 442 925 465 860 q 392 1037 414 1011 q 319 1074 371 1063 q 198 1053 265 1086 q 94 967 131 1019 q 85 878 58 914 q 105 865 94 865 q 154 872 115 864 q 229 874 211 883 q 245 844 247 864 q 224 815 243 825 q 200 799 224 814 q 160 779 176 785 q 128 776 144 774 q 29 855 63 790 q 31 964 -4 919 q 50 1006 40 976 q 110 1072 60 1032 m 165 158 q 216 164 178 172 q 271 135 254 156 q 285 54 304 97 q 219 13 267 11 q 178 26 190 14 q 160 72 165 38 q 165 158 147 135 z "},"@":{"ha":976,"x_min":11,"x_max":972,"o":"m 213 1083 q 233 1106 224 1101 q 267 1111 242 1111 l 307 1111 l 278 1082 q 239 1029 251 1053 q 193 960 231 1014 q 149 874 160 915 q 125 806 139 840 q 90 709 107 765 q 74 633 74 653 q 94 531 74 607 q 117 461 107 482 q 150 418 128 440 q 210 349 185 385 q 288 276 236 313 l 339 240 l 415 247 q 514 254 489 251 q 583 265 539 257 q 660 287 628 272 q 740 326 693 301 q 795 343 769 342 q 832 331 821 344 q 833 303 843 317 q 804 289 824 289 q 703 253 789 289 q 589 215 640 226 q 444 192 538 203 q 281 210 310 176 q 226 254 264 229 q 123 353 182 283 q 56 457 64 424 q 28 547 47 490 q 15 630 11 593 q 44 736 18 667 q 85 850 69 801 q 169 1017 115 943 q 213 1083 197 1054 m 832 1072 l 806 1111 l 849 1111 q 890 1106 882 1111 q 913 1072 899 1101 q 960 909 950 997 q 953 749 971 821 q 913 649 936 688 q 838 554 890 611 q 737 477 776 492 q 646 485 697 463 q 619 503 625 493 q 608 539 613 513 q 594 584 603 575 q 569 578 586 593 q 511 553 554 564 q 374 613 421 528 q 354 706 346 664 q 411 808 363 749 q 525 890 456 861 q 647 904 594 918 l 682 896 l 681 846 q 672 710 679 793 q 670 629 668 649 q 686 583 672 610 q 714 544 706 544 q 774 588 721 544 q 849 656 826 632 q 886 736 868 679 q 899 799 897 774 q 897 869 901 824 q 832 1072 882 1004 m 617 832 q 608 851 618 849 q 561 844 597 853 q 475 792 522 836 q 451 770 458 778 q 437 755 443 763 q 429 739 431 747 q 427 723 428 731 q 426 699 426 715 q 439 633 426 647 q 483 618 451 617 q 550 639 514 619 l 590 660 l 603 738 q 617 832 613 796 z "},"A":{"ha":569,"x_min":8,"x_max":563,"o":"m 299 1046 q 342 1042 318 1069 q 355 1018 347 1035 q 369 981 363 1001 q 383 938 376 961 q 392 897 389 915 q 411 832 397 861 q 442 625 424 803 q 474 407 463 443 q 490 342 489 356 q 500 322 494 328 q 518 317 506 317 q 552 301 542 317 q 551 265 563 286 q 536 246 546 249 q 493 244 526 243 l 446 247 l 443 285 q 431 369 442 311 q 410 477 421 428 q 396 532 400 526 q 193 538 385 544 q 158 524 168 536 q 114 440 147 511 q 53 299 69 344 q 15 247 31 231 q 32 321 10 253 q 74 428 54 389 q 117 532 94 467 q 149 603 139 593 q 158 622 158 613 q 181 706 158 631 q 226 864 208 800 q 263 964 249 949 q 282 1006 276 979 q 299 1046 289 1035 m 335 922 q 324 938 329 938 q 311 932 318 938 q 300 918 304 926 q 296 903 296 910 q 276 858 296 889 q 244 772 257 828 q 222 704 231 715 q 207 650 213 693 l 201 608 l 293 608 q 388 613 385 608 q 381 719 397 624 q 335 922 365 815 z "},"B":{"ha":694,"x_min":4,"x_max":683,"o":"m 201 1094 q 283 1111 224 1111 q 582 1021 432 1110 q 659 944 640 986 q 681 806 678 903 l 682 707 l 654 682 q 613 653 625 656 q 611 631 600 647 q 664 510 650 572 q 663 400 678 449 q 617 324 654 367 q 544 264 579 282 q 459 243 524 253 q 339 233 394 233 q 217 225 276 233 q 136 231 161 218 q 112 239 119 239 q 92 229 104 239 q 25 228 56 204 q 19 260 6 242 q 67 286 32 279 q 90 291 83 289 q 103 300 97 293 q 110 315 108 307 q 118 343 113 322 q 139 588 129 394 q 146 919 149 782 q 153 1069 144 1060 q 161 1074 156 1072 q 201 1094 181 1076 m 401 1042 q 304 1059 336 1057 q 239 1054 272 1061 l 196 1044 l 196 864 q 207 682 196 682 q 215 690 211 682 q 326 708 224 703 q 536 708 428 714 q 581 709 568 706 q 610 728 594 713 q 630 757 628 744 q 628 821 632 769 q 610 918 624 893 q 531 992 590 957 q 401 1042 472 1026 m 526 632 q 424 651 501 643 q 339 650 347 658 q 261 640 332 644 l 189 638 l 183 507 q 171 338 176 365 q 186 285 164 293 q 324 288 208 278 q 500 314 447 296 q 590 376 553 332 q 620 420 617 407 q 621 476 624 433 q 590 572 615 531 q 526 632 564 613 z "},"C":{"ha":711,"x_min":8,"x_max":700,"o":"m 357 1101 q 390 1105 371 1103 q 418 1108 408 1107 q 429 1110 428 1108 q 478 1096 443 1111 q 544 1058 514 1081 q 612 989 594 1025 q 628 888 629 953 q 617 810 626 831 q 586 793 608 790 q 569 806 571 796 q 576 867 568 817 q 552 972 586 919 q 468 1039 518 1025 q 307 1042 396 1060 q 182 981 218 1024 q 127 885 160 954 q 82 765 94 815 q 70 588 65 706 q 94 392 75 469 q 135 311 104 356 q 199 240 165 267 q 360 215 261 190 q 425 250 397 225 q 490 333 453 275 q 554 400 517 374 q 593 421 579 417 q 629 421 607 425 q 683 405 667 415 q 699 375 699 394 q 687 347 699 356 q 644 338 675 339 q 485 231 586 336 q 414 166 436 179 q 339 143 392 153 q 285 138 304 138 q 235 149 267 139 q 198 164 213 156 q 169 186 183 172 q 131 229 156 200 q 60 333 79 292 q 28 458 42 375 q 16 678 8 585 q 61 867 24 772 q 174 1042 111 992 q 357 1101 236 1092 z "},"D":{"ha":674,"x_min":11,"x_max":679,"o":"m 28 1097 q 22 1110 13 1108 q 60 1111 31 1111 q 94 1110 82 1111 q 112 1104 106 1108 q 124 1092 118 1100 q 165 1072 136 1074 q 263 1083 193 1071 q 323 1091 304 1092 q 376 1081 342 1090 q 558 978 507 1040 q 639 760 608 917 q 646 449 678 560 q 621 392 636 414 q 565 331 606 371 q 465 249 518 283 q 385 215 411 215 q 364 207 369 215 q 338 197 360 197 q 244 169 315 197 q 126 133 169 139 q 63 119 74 124 q 28 129 42 114 q 14 153 13 143 q 36 192 15 163 q 53 235 60 228 q 57 256 47 243 q 96 412 79 281 q 110 654 113 543 q 95 902 104 815 q 71 1033 86 989 q 28 1097 56 1078 m 424 1004 q 346 1030 376 1025 q 258 1028 315 1035 q 178 1010 199 1022 q 161 976 157 999 q 153 933 165 961 q 144 889 140 904 q 156 664 153 856 q 151 431 158 472 q 121 204 113 213 q 374 276 128 197 q 445 307 421 292 q 515 364 469 322 q 596 467 585 429 q 609 579 610 508 q 594 710 608 650 q 548 877 567 828 q 504 952 529 926 q 424 1004 479 978 z "},"E":{"ha":672,"x_min":13,"x_max":660,"o":"m 19 1081 q 24 1106 19 1101 q 43 1111 28 1111 q 65 1097 65 1111 q 165 1056 65 1071 q 363 1062 217 1047 q 553 1094 508 1076 q 603 1108 578 1103 q 644 1110 628 1113 q 660 1100 660 1108 q 635 1057 660 1090 q 592 1008 610 1024 q 550 992 575 994 q 518 1003 525 990 q 414 1006 511 1011 q 234 1000 340 1001 q 110 1003 128 999 q 100 999 103 1004 q 99 979 97 993 q 99 958 99 974 q 100 923 100 942 q 101 876 100 904 q 101 826 101 849 q 114 697 104 715 q 178 685 124 679 q 310 697 265 696 q 397 689 354 697 q 475 649 476 675 q 463 626 475 639 q 438 613 449 613 q 379 624 426 613 q 251 632 317 638 q 136 618 164 625 q 103 596 108 611 q 89 418 96 579 l 83 261 l 104 261 q 135 269 125 261 q 363 293 172 303 q 453 288 426 290 q 490 281 479 285 q 506 268 500 276 q 495 230 517 246 q 440 221 474 214 q 317 234 388 231 q 208 231 247 238 q 101 186 156 224 q 51 156 60 158 q 28 167 42 153 q 15 189 17 179 q 18 225 13 199 q 40 477 29 269 q 50 810 51 685 q 35 1000 50 953 q 19 1081 19 1049 z "},"F":{"ha":553,"x_min":10,"x_max":543,"o":"m 26 1082 q 26 1108 22 1104 q 53 1111 29 1111 q 96 1097 88 1111 q 127 1088 103 1089 q 239 1094 151 1088 q 434 1103 335 1101 q 539 1097 533 1104 q 535 1064 543 1093 q 522 1038 528 1042 q 486 1038 515 1035 q 268 1037 408 1046 q 106 1014 128 1028 l 82 999 l 86 857 q 99 708 92 715 q 157 708 107 700 q 322 723 213 718 q 449 722 432 728 q 463 713 460 719 q 465 689 467 706 l 463 661 l 344 658 q 248 656 294 658 q 167 651 201 654 q 112 643 133 647 q 88 635 90 639 q 79 533 83 629 q 65 235 71 293 q 42 160 58 176 q 15 144 19 140 q 21 331 11 149 q 33 764 31 479 q 26 1082 35 1049 z "},"G":{"ha":704,"x_min":13,"x_max":711,"o":"m 226 1071 q 283 1093 263 1089 q 342 1096 304 1097 q 622 981 529 1092 q 640 950 638 963 q 639 907 643 938 q 624 851 633 864 q 582 826 614 838 q 553 822 563 821 q 536 831 544 822 q 529 860 524 844 q 557 883 535 875 q 575 896 571 888 q 579 922 579 904 q 563 967 579 950 q 492 1013 547 983 q 433 1037 456 1032 q 360 1042 411 1042 q 246 1025 281 1043 q 188 986 215 1010 q 160 953 160 963 q 128 893 160 943 q 82 792 97 843 q 68 663 71 751 q 76 568 65 575 q 96 517 83 564 q 149 415 107 471 q 353 301 221 317 q 405 301 386 297 q 467 326 424 306 q 573 402 522 353 q 635 489 624 451 q 637 555 643 514 q 618 603 631 596 q 483 600 610 606 q 340 601 356 594 q 324 631 324 610 q 342 668 325 653 q 359 679 353 678 q 374 672 365 681 q 524 663 389 660 q 656 657 635 664 q 686 608 676 650 q 631 383 711 493 q 465 265 572 303 q 267 257 357 228 q 140 327 181 286 q 53 471 99 368 q 31 528 38 507 q 20 574 24 550 q 15 638 17 597 q 15 706 13 675 q 22 760 17 736 q 40 814 28 785 q 111 967 81 914 q 135 1005 126 993 q 156 1028 143 1017 q 183 1048 169 1040 q 226 1071 197 1056 z "},"H":{"ha":701,"x_min":13,"x_max":696,"o":"m 17 1074 q 15 1106 13 1101 q 39 1111 18 1111 q 63 1104 60 1111 q 67 1058 67 1097 q 75 864 71 942 l 79 722 l 103 724 q 238 744 119 724 q 424 765 347 764 l 497 767 l 494 924 q 504 1096 492 1081 q 531 1108 511 1106 q 601 1111 550 1111 q 682 1103 669 1111 q 678 1064 694 1096 q 655 1048 668 1047 q 632 1067 642 1049 q 601 1081 621 1089 q 561 1038 581 1074 q 544 984 546 1008 q 544 869 542 960 q 554 678 550 721 q 583 293 575 335 q 584 260 586 271 q 569 239 582 250 q 526 249 536 210 q 515 417 517 288 q 508 608 513 528 l 503 696 l 374 693 q 93 656 215 690 q 74 638 76 650 q 71 563 71 625 q 78 368 71 464 q 81 274 83 289 q 64 253 79 258 q 31 261 38 243 q 22 496 19 286 q 17 1074 28 1010 z "},"I":{"ha":750,"x_min":8,"x_max":743,"o":"m 67 1069 q 94 1083 76 1082 q 118 1075 111 1085 q 144 1065 124 1065 q 176 1054 164 1065 q 300 1044 186 1043 q 479 1057 414 1044 q 588 1069 533 1065 q 657 1078 643 1072 q 708 1051 682 1086 q 736 971 733 1015 q 676 858 743 892 q 649 849 657 847 q 622 872 642 851 q 598 923 599 900 q 619 957 597 946 q 656 957 643 968 q 676 958 674 942 q 667 988 678 971 q 644 1007 656 1004 q 585 1006 633 1010 q 472 989 515 999 l 424 979 l 419 792 q 410 599 414 607 q 399 551 404 590 q 393 473 394 513 q 394 407 392 433 l 401 357 l 492 346 q 619 332 589 333 l 657 331 l 657 289 q 657 282 657 286 q 647 251 656 254 q 579 260 638 249 q 569 261 574 261 q 406 280 508 272 q 278 283 303 288 q 167 269 257 279 q 57 256 76 260 q 27 255 35 253 q 17 265 19 257 q 18 296 10 282 q 93 325 25 307 q 193 342 161 343 q 270 349 225 342 q 322 365 315 357 q 361 640 333 379 q 372 838 371 739 q 363 953 372 936 q 340 969 356 964 q 275 979 324 975 q 176 993 226 982 q 94 1017 126 1004 q 60 1040 61 1031 q 67 1069 57 1056 z "},"J":{"ha":597,"x_min":10,"x_max":604,"o":"m 144 1103 l 175 1107 q 364 1110 240 1110 q 583 1101 603 1110 q 526 1094 565 1094 q 491 1085 494 1093 q 500 1026 488 1076 q 520 881 518 957 q 510 676 522 804 q 461 408 494 499 q 367 288 428 318 q 189 233 263 233 q 31 372 75 233 q 14 474 11 435 q 21 506 17 500 q 40 513 25 513 q 60 504 56 513 q 69 457 64 496 q 92 369 74 410 q 133 313 110 328 q 208 298 161 293 q 311 331 256 303 q 390 390 364 357 q 431 483 415 424 q 457 664 446 543 q 433 1044 483 939 l 415 1082 l 289 1089 q 144 1103 163 1094 z "},"K":{"ha":608,"x_min":11,"x_max":597,"o":"m 21 1101 q 47 1111 26 1111 q 67 1102 61 1111 q 83 1064 74 1093 q 97 951 97 1017 q 104 805 97 906 q 111 675 111 704 q 119 611 114 618 q 158 632 125 607 q 228 693 190 657 q 272 728 263 728 q 363 806 283 728 q 471 922 443 883 q 525 1033 513 979 q 513 1101 538 1088 q 514 1110 499 1108 q 532 1111 519 1111 l 569 1111 l 586 1058 q 597 1009 597 1021 q 583 969 596 997 q 442 806 564 932 q 372 731 397 760 q 333 683 347 703 q 319 656 319 664 q 326 642 319 647 q 422 476 339 633 q 485 397 435 451 q 547 339 535 343 q 573 316 561 333 q 569 288 585 299 q 556 265 556 279 q 551 257 556 261 q 542 253 547 253 q 485 292 528 253 q 429 360 443 332 q 376 444 422 372 q 308 561 331 517 q 260 636 268 636 q 213 606 250 636 q 143 540 175 575 l 101 496 l 94 400 q 88 315 92 368 q 85 253 85 261 q 61 186 81 203 q 32 172 42 169 q 15 206 18 176 q 21 265 11 236 q 56 749 57 374 q 52 978 56 933 q 35 1051 49 1022 q 21 1101 14 1092 m 390 1097 q 439 1111 401 1111 l 474 1111 l 450 1079 q 406 1049 425 1046 q 384 1067 389 1051 q 390 1097 379 1083 z "},"L":{"ha":779,"x_min":13,"x_max":774,"o":"m 86 1093 q 107 1111 86 1111 q 128 1101 124 1111 q 136 1040 132 1090 q 153 884 138 1014 q 168 692 168 754 q 155 463 168 628 q 135 288 142 297 q 214 285 121 264 q 474 275 332 311 q 521 266 510 265 q 549 276 532 267 q 573 287 563 286 q 607 279 583 288 q 642 273 631 271 q 685 293 654 275 q 738 315 724 314 q 763 297 753 315 q 758 263 772 278 q 676 215 743 249 q 576 170 600 176 q 532 178 551 164 q 333 233 467 228 q 149 192 199 238 q 124 156 139 183 q 97 99 108 128 q 86 60 86 71 q 67 33 86 42 q 31 33 49 24 q 14 50 14 42 q 28 86 14 58 q 35 133 42 118 q 49 183 29 151 q 108 526 81 236 q 119 703 121 650 q 94 989 118 756 q 86 1093 86 1074 z "},"M":{"ha":965,"x_min":14,"x_max":954,"o":"m 15 1096 q 14 1104 14 1101 q 21 1108 14 1107 q 38 1110 28 1110 q 67 1111 47 1111 q 104 1110 90 1111 q 126 1104 118 1108 q 142 1093 135 1100 q 171 1075 158 1075 q 222 1043 196 1075 q 283 940 247 1011 q 347 818 329 847 q 378 751 356 806 q 410 682 400 697 q 483 546 424 663 q 554 428 543 431 q 561 433 557 426 q 569 448 565 439 q 575 467 572 457 q 581 485 578 476 q 585 494 583 493 q 615 568 590 503 q 660 663 639 631 q 703 763 674 688 q 790 951 726 825 q 864 1081 854 1078 q 889 1072 872 1085 q 926 782 915 1051 q 940 619 928 751 q 951 400 951 486 q 951 297 953 319 q 938 268 949 275 q 901 276 908 253 q 897 372 896 299 q 883 694 899 464 q 858 932 867 924 q 841 921 854 936 q 815 882 828 906 q 799 840 803 858 q 776 785 792 815 q 753 732 761 754 q 719 659 742 699 q 685 590 696 619 q 653 517 663 533 q 601 336 626 467 q 574 264 589 278 q 556 254 561 254 q 539 265 551 254 q 517 317 524 279 q 417 542 513 349 q 274 831 326 721 q 213 929 221 939 q 214 908 210 925 q 227 803 224 857 q 232 622 231 750 q 243 322 236 433 q 245 227 247 244 q 228 193 243 210 q 197 183 204 167 q 183 506 185 211 q 171 901 182 821 q 141 1004 163 971 q 68 1061 119 1038 q 15 1096 21 1082 z "},"N":{"ha":746,"x_min":10,"x_max":736,"o":"m 136 1054 l 124 1111 l 158 1111 q 190 1106 181 1111 q 210 1078 199 1100 q 256 992 215 1068 q 333 844 296 917 q 374 757 369 772 q 397 700 379 736 q 437 625 414 664 q 488 546 460 586 q 542 476 517 506 q 617 372 592 415 q 658 318 649 318 q 664 450 671 318 q 654 592 658 585 q 649 851 653 597 l 646 1107 l 682 1110 q 711 1104 713 1111 q 710 1101 711 1104 q 705 826 703 1090 q 714 499 707 563 q 733 301 729 381 q 726 218 736 221 q 715 193 715 214 q 708 167 715 172 q 681 181 703 161 q 660 210 660 200 q 619 261 660 218 q 550 357 578 307 q 485 443 519 410 q 394 578 460 467 q 317 728 328 690 q 299 774 314 742 q 269 838 285 806 q 239 894 253 869 q 221 919 225 919 q 210 763 213 919 q 163 394 203 546 q 149 292 150 340 q 144 249 149 260 q 122 225 139 238 q 82 167 94 204 q 68 135 75 143 q 44 126 61 128 q 15 138 19 124 q 24 185 11 147 q 58 264 36 222 q 96 392 67 282 q 140 581 125 503 q 155 681 153 638 q 154 832 157 725 q 136 1054 149 992 z "},"O":{"ha":779,"x_min":7,"x_max":781,"o":"m 339 1086 q 407 1099 378 1088 q 478 1111 436 1111 q 531 1104 531 1111 l 526 1099 q 524 1091 524 1094 q 528 1082 524 1088 q 543 1069 533 1076 q 571 1053 553 1063 q 649 989 621 1021 q 706 896 676 957 q 764 672 749 799 q 700 375 779 543 q 608 241 654 279 q 471 183 563 203 q 381 177 421 174 q 269 201 342 181 q 224 214 250 207 q 177 231 192 222 q 108 279 163 239 q 102 285 104 283 q 95 290 100 288 q 88 296 90 293 q 19 508 36 336 q 25 708 7 621 q 100 910 43 796 q 140 979 122 956 q 185 1022 158 1003 q 264 1074 236 1063 q 339 1086 292 1086 m 392 1008 q 301 1023 368 1043 q 197 951 233 1003 q 153 890 171 914 q 108 796 131 864 q 72 654 85 728 q 64 576 64 603 q 72 501 64 549 q 101 393 86 426 q 153 328 117 360 q 221 281 183 299 q 306 256 258 264 q 417 247 354 247 q 501 251 476 247 q 549 268 526 256 q 622 331 596 293 q 686 471 647 368 q 708 544 704 517 q 713 636 713 572 q 696 778 713 711 q 657 864 679 846 q 644 885 644 875 q 631 915 644 894 q 594 957 617 935 q 547 994 571 979 q 477 1027 504 1024 q 428 1008 450 1031 l 406 988 l 392 1008 z "},"P":{"ha":601,"x_min":14,"x_max":590,"o":"m 76 1093 q 90 1103 83 1100 q 121 1109 97 1107 q 175 1111 144 1111 q 275 1111 206 1111 q 454 1103 428 1111 q 504 1057 475 1094 q 513 1047 511 1050 q 553 994 539 1014 q 576 953 567 974 q 587 915 585 932 q 589 869 589 897 q 583 805 589 828 q 556 736 578 782 q 492 639 521 665 q 347 561 436 586 q 185 553 258 536 q 169 556 179 554 q 113 562 122 567 q 101 513 104 557 q 100 499 100 504 q 90 415 99 474 q 78 308 82 357 q 78 222 75 258 q 88 176 82 188 q 108 160 93 165 q 163 160 128 153 q 224 185 197 167 q 250 192 244 199 q 256 158 258 183 q 242 119 253 133 q 183 94 231 100 q 96 99 135 88 q 36 110 56 110 l 14 111 l 17 197 q 32 375 18 279 q 58 651 44 454 q 68 874 72 847 q 61 986 65 896 q 60 1064 58 1047 q 76 1093 63 1081 m 403 1056 q 333 1076 368 1072 q 238 1069 297 1079 q 104 1025 103 1047 l 106 1019 q 111 828 111 1011 l 111 644 l 149 625 q 194 610 174 613 q 267 613 214 608 q 381 632 338 617 q 458 679 425 647 q 528 801 510 728 q 522 924 547 874 q 489 976 510 950 q 445 1024 468 1003 q 403 1056 422 1046 z "},"Q":{"ha":924,"x_min":13,"x_max":915,"o":"m 347 1096 q 430 1095 376 1101 q 525 1075 483 1089 q 592 1057 572 1058 q 631 1067 613 1056 q 693 1025 661 1086 q 736 960 700 1011 q 783 878 772 908 q 817 803 801 828 q 834 732 825 789 q 847 621 843 675 q 846 536 850 567 q 814 464 840 506 q 750 385 788 422 q 704 325 704 339 q 771 263 704 299 q 819 244 801 246 q 854 257 836 243 q 890 269 875 272 q 908 247 904 267 q 896 201 915 222 q 867 183 882 186 q 813 179 853 179 q 753 185 769 179 q 704 218 738 190 q 679 238 693 226 q 656 257 665 250 q 644 265 647 264 q 583 250 633 275 q 344 190 449 182 q 235 222 286 194 q 110 314 183 249 q 18 574 36 379 q 15 664 13 639 q 33 739 17 689 q 89 872 57 813 q 157 969 114 919 q 224 1025 200 1018 q 283 1060 232 1029 q 347 1096 333 1092 m 499 1029 q 403 1044 440 1046 q 324 1019 367 1042 q 217 950 268 992 q 153 879 167 908 q 128 842 138 847 q 93 751 119 836 q 68 615 69 678 q 89 479 67 551 q 113 421 100 442 q 167 361 126 400 q 368 253 275 253 q 431 260 393 253 q 503 280 469 268 q 562 304 538 292 q 586 325 586 317 q 526 394 586 332 q 469 481 467 457 q 496 508 471 506 q 529 488 521 511 q 588 421 536 471 q 650 371 639 371 q 713 426 663 371 q 781 515 764 482 q 801 569 799 549 q 801 644 804 589 q 790 726 797 697 q 754 815 782 754 q 671 953 711 904 q 628 994 643 985 q 578 1011 613 1004 q 499 1029 528 1021 z "},"R":{"ha":738,"x_min":13,"x_max":732,"o":"m 39 1008 l 39 1111 l 63 1111 q 85 1093 85 1111 q 92 1075 85 1075 q 185 1093 100 1075 q 374 1111 272 1111 l 476 1111 l 536 1054 q 587 997 571 1021 q 609 943 603 972 q 615 864 615 914 q 532 656 615 772 l 503 617 l 531 560 q 563 487 547 526 q 587 415 578 447 q 596 369 596 383 q 618 307 599 347 q 640 272 631 281 q 669 261 650 264 q 721 241 711 254 q 713 203 731 228 q 694 191 704 192 q 646 199 683 190 q 576 224 592 210 q 551 288 561 238 q 486 499 525 422 q 436 569 457 557 q 344 581 415 582 q 190 588 268 579 q 106 586 118 597 q 90 424 99 579 q 83 183 81 269 q 80 140 85 153 q 57 111 75 128 q 14 118 13 68 q 21 172 14 138 q 40 400 29 221 q 53 592 50 579 q 43 618 58 607 q 31 651 29 631 q 49 683 32 672 l 69 696 l 54 801 q 39 1008 39 901 m 428 1046 q 313 1051 367 1063 q 208 1033 300 1049 q 164 1025 181 1029 q 132 1017 147 1021 q 109 1007 117 1013 q 95 996 101 1001 q 88 981 89 990 q 87 960 88 971 q 89 933 86 950 q 113 693 108 763 q 150 671 113 678 q 301 660 188 664 l 450 653 l 482 688 q 539 763 517 725 q 557 806 554 789 q 556 865 560 822 q 538 954 551 929 q 490 1010 522 983 q 428 1046 457 1038 z "},"S":{"ha":546,"x_min":1,"x_max":538,"o":"m 118 1096 q 161 1108 131 1106 q 271 1111 192 1111 l 404 1111 l 450 1074 q 503 1022 490 1039 q 526 963 515 1004 q 531 875 536 925 q 511 808 526 825 q 451 791 497 792 q 383 806 404 790 q 344 853 361 821 q 326 911 326 886 q 347 967 326 940 q 386 990 368 994 q 413 961 404 988 q 410 908 421 935 q 409 868 400 882 q 444 857 418 854 q 473 889 465 860 q 468 960 481 918 q 366 1058 449 1026 q 194 1061 283 1089 q 133 1031 151 1049 q 97 965 114 1013 q 72 847 75 910 q 85 758 68 785 q 147 697 115 710 q 281 682 179 685 q 435 645 383 679 q 506 532 486 611 q 517 467 517 489 q 506 393 517 446 q 392 206 481 263 q 345 183 364 188 q 279 179 326 179 q 198 188 242 179 q 115 213 154 197 q 49 246 75 228 q 26 272 29 258 q 26 344 24 285 q 33 415 28 397 q 51 449 38 433 q 174 501 99 499 q 247 488 213 503 q 281 457 281 474 q 259 414 281 425 q 213 421 238 403 q 161 434 194 435 q 108 418 128 433 q 81 352 86 400 q 94 286 75 304 q 216 240 132 253 q 347 247 300 226 q 405 295 376 258 q 449 375 433 332 q 459 424 458 404 q 454 482 460 443 q 400 580 442 554 q 236 618 358 606 q 114 636 133 628 q 25 744 49 663 q 26 938 1 825 q 64 1029 35 979 q 118 1096 93 1079 z "},"T":{"ha":835,"x_min":13,"x_max":825,"o":"m 668 1085 q 728 1111 693 1111 q 763 1101 753 1111 q 772 1065 772 1092 q 800 1017 772 1047 q 822 985 821 993 q 814 957 824 976 q 804 942 810 949 q 794 932 799 936 q 785 928 789 928 q 744 957 771 928 q 718 1003 718 986 q 674 1008 718 1035 q 660 997 668 1004 q 510 938 603 956 q 446 918 453 926 q 440 750 444 914 q 433 421 436 586 q 429 253 431 256 q 426 206 428 226 q 406 165 426 192 q 369 196 368 118 q 374 250 369 218 q 383 622 383 353 q 372 903 382 890 q 278 922 361 917 q 169 942 193 929 q 96 964 149 954 q 14 1022 14 982 q 30 1043 14 1040 q 83 1035 46 1046 q 223 999 186 1006 q 335 992 260 992 q 488 1000 433 992 q 557 1021 521 1007 q 623 1052 593 1035 q 668 1085 653 1069 z "},"U":{"ha":775,"x_min":11,"x_max":763,"o":"m 14 1096 q 21 1109 13 1107 q 64 1110 29 1111 l 115 1107 l 142 1017 q 158 950 151 982 q 167 896 165 918 q 174 840 169 874 q 185 778 179 807 q 236 458 221 576 q 255 344 249 369 q 281 282 261 319 q 326 222 303 238 q 392 210 350 206 q 503 238 439 213 q 593 289 567 264 q 649 374 615 311 q 699 488 682 436 q 706 549 706 514 q 699 678 707 585 q 682 969 686 879 l 676 1111 l 719 1111 q 763 1107 763 1111 q 743 1076 763 1101 q 730 1026 731 1058 q 740 832 729 993 q 749 562 753 632 q 721 407 746 492 q 698 344 707 364 q 675 306 689 325 q 631 256 661 288 q 583 210 601 225 q 553 190 564 194 q 511 176 543 185 q 451 156 479 167 q 329 140 371 128 q 242 222 288 153 q 206 297 217 258 q 186 426 196 335 q 155 649 179 490 q 113 906 131 808 q 81 1036 97 1000 q 38 1076 65 1072 q 14 1096 18 1079 z "},"V":{"ha":964,"x_min":14,"x_max":951,"o":"m 293 908 q 311 874 293 901 q 329 840 329 847 q 338 818 329 838 q 361 772 347 799 q 388 720 375 746 q 412 675 401 694 q 424 654 422 656 q 437 628 429 643 q 450 603 444 614 q 466 571 456 592 q 488 525 476 550 q 539 435 531 435 q 554 459 543 435 q 581 524 565 483 q 609 601 596 564 q 636 678 622 638 q 654 728 650 718 q 717 856 674 788 q 758 931 758 924 q 793 985 758 938 q 813 1013 801 996 q 837 1047 825 1031 q 854 1072 849 1064 q 870 1092 864 1085 q 883 1103 876 1099 q 897 1110 890 1108 q 917 1111 904 1111 l 951 1111 l 935 1083 q 885 1015 921 1058 q 814 908 860 988 q 754 810 768 829 q 714 728 731 778 q 686 654 697 679 q 654 563 668 621 q 626 476 640 506 q 585 378 593 400 q 576 343 576 356 q 557 298 576 325 q 525 271 538 271 q 499 297 513 271 q 482 357 486 322 q 422 508 475 411 q 314 724 401 544 q 207 947 226 904 q 150 1040 188 994 q 116 1076 126 1069 q 88 1078 106 1082 q 36 1092 58 1074 l 14 1110 l 108 1111 q 188 1108 175 1111 q 201 1092 201 1106 q 218 1053 201 1072 q 246 1010 228 1042 q 278 948 264 979 q 293 908 293 917 z "},"W":{"ha":1275,"x_min":11,"x_max":1267,"o":"m 1004 1092 q 1031 1108 1014 1106 q 1129 1110 1049 1111 q 1251 1099 1239 1107 q 1261 1071 1265 1088 q 1238 1046 1257 1054 q 1158 1042 1219 1039 q 1068 1053 1097 1044 q 1043 1035 1051 1058 q 1014 976 1036 1017 q 975 893 990 940 q 928 793 960 849 q 896 724 896 743 q 867 604 896 707 q 847 519 858 578 q 824 432 836 461 q 804 370 818 418 q 774 301 790 322 q 719 343 732 249 q 708 391 718 361 q 688 447 699 421 q 668 503 678 474 q 656 549 658 532 q 603 723 647 590 q 538 899 558 856 q 520 919 528 919 q 513 897 513 918 q 490 813 513 876 q 453 682 472 760 q 435 622 443 642 q 420 580 428 601 q 401 517 413 558 q 367 403 386 444 q 349 351 349 363 q 325 313 346 336 q 305 292 311 296 q 290 297 299 289 q 275 351 275 310 q 245 539 275 388 q 197 742 215 690 q 126 903 171 819 q 50 1014 81 986 q 17 1050 22 1040 q 18 1072 11 1060 q 53 1089 32 1097 q 114 1035 74 1081 q 306 528 240 892 q 326 465 318 468 q 339 484 331 464 q 358 541 347 504 q 379 610 369 578 q 400 682 389 642 q 414 732 411 722 q 490 1039 469 913 q 508 1085 494 1072 q 525 1090 518 1092 q 546 1072 532 1088 q 572 1022 567 1044 q 635 824 575 1006 q 696 640 694 643 q 708 597 701 618 q 723 550 715 575 q 739 499 731 525 q 765 442 757 440 q 781 478 774 443 q 853 778 835 732 q 885 833 865 808 q 929 928 906 861 q 1004 1092 964 1029 z "},"X":{"ha":957,"x_min":14,"x_max":944,"o":"m 14 1094 q 35 1108 14 1106 q 149 1111 56 1111 l 285 1111 l 306 1083 q 403 888 363 1007 q 469 736 456 736 q 499 761 478 736 q 548 849 515 783 q 581 929 581 915 q 596 965 581 939 q 635 1022 611 992 q 679 1072 658 1051 l 718 1111 l 915 1111 q 944 997 931 1054 l 915 968 q 872 938 888 938 q 851 956 857 938 q 854 992 844 974 q 864 1045 867 1015 q 846 1083 861 1075 q 804 1086 826 1094 q 747 1049 782 1078 q 682 979 717 1025 q 618 882 647 933 q 576 792 589 831 q 539 731 569 771 q 505 665 504 685 q 547 585 506 644 q 760 331 744 307 q 785 359 771 360 q 800 328 800 358 q 786 264 800 299 q 761 226 772 229 q 685 285 747 224 q 608 375 622 346 q 503 522 583 424 q 481 560 481 551 q 463 585 481 569 q 441 590 450 596 q 396 539 432 583 q 296 397 347 476 q 249 332 268 356 q 207 290 229 308 q 146 250 185 272 q 110 230 121 233 q 92 233 100 226 q 78 263 78 246 q 94 288 79 281 q 171 333 133 303 q 232 394 208 363 q 311 503 240 407 q 408 638 392 613 q 419 672 424 663 q 396 736 413 688 q 308 956 367 822 q 271 1016 301 972 q 228 1072 240 1060 q 200 1079 225 1076 q 146 1094 178 1081 q 116 1100 125 1101 q 88 1081 107 1099 q 47 1057 60 1057 q 24 1069 35 1057 q 14 1094 14 1081 z "},"Y":{"ha":817,"x_min":8,"x_max":804,"o":"m 18 1097 q 25 1110 8 1108 q 64 1111 36 1111 q 120 1104 106 1111 q 179 1058 135 1097 q 238 993 238 1007 q 257 960 238 981 q 369 776 307 906 q 406 710 401 710 q 450 785 408 710 q 528 925 503 883 q 573 994 553 967 q 632 1064 593 1021 l 674 1111 l 739 1111 q 804 1103 804 1111 q 779 1073 804 1099 q 726 1024 754 1047 q 694 1001 699 1001 q 621 915 688 1001 q 544 821 553 826 q 531 806 539 818 q 515 781 522 793 q 499 754 507 768 q 488 736 490 740 q 463 678 479 725 q 428 574 446 632 q 401 471 411 515 q 384 293 383 389 q 404 167 385 197 q 414 145 413 154 q 413 131 415 136 q 406 117 410 126 q 400 97 401 107 q 358 86 394 58 q 340 116 346 96 q 329 192 335 136 q 327 344 322 260 q 347 467 332 429 q 366 555 363 507 q 360 632 369 603 q 310 746 343 679 q 247 860 278 813 q 130 1007 201 931 q 38 1083 58 1083 q 18 1097 31 1083 m 246 1093 q 244 1108 239 1106 q 279 1111 249 1111 q 315 1107 314 1111 q 306 1093 315 1103 q 273 1075 289 1075 q 246 1093 257 1075 z "},"Z":{"ha":840,"x_min":10,"x_max":828,"o":"m 14 1101 q 422 1111 14 1111 q 819 1100 819 1110 q 808 1064 808 1089 q 756 979 808 1038 q 582 742 644 858 q 540 671 561 701 q 494 606 519 640 q 450 544 468 572 q 290 325 394 463 q 233 242 233 251 q 264 232 233 233 q 319 229 276 232 q 397 235 346 228 q 578 253 424 239 q 765 274 732 267 q 817 282 806 285 q 828 258 828 279 q 809 221 828 238 q 765 201 790 204 q 615 189 703 194 q 519 186 526 183 q 426 175 508 189 q 279 161 344 161 q 192 151 218 161 q 154 153 167 143 q 142 183 142 163 q 156 215 143 204 q 169 239 169 228 q 200 286 169 253 q 251 351 218 307 q 307 421 283 396 q 374 515 343 463 q 447 619 410 574 q 515 722 488 664 q 629 896 539 771 q 713 1018 718 1013 q 638 1011 710 1024 q 265 982 367 968 q 131 1001 175 996 q 40 1046 10 1018 q 46 1050 43 1049 q 56 1063 57 1058 q 38 1078 54 1067 q 14 1101 14 1094 z "},"[":{"ha":396,"x_min":14,"x_max":388,"o":"m 147 1079 q 283 1099 225 1100 q 324 1097 311 1099 q 342 1090 336 1094 q 353 1076 349 1086 q 374 1044 363 1056 q 383 1006 386 1032 q 361 951 379 981 q 339 885 339 915 q 308 815 339 840 q 278 821 288 801 q 304 926 274 835 q 319 971 314 956 q 327 1001 325 986 q 328 1022 329 1015 q 320 1032 326 1028 q 305 1037 314 1036 q 279 1038 296 1038 q 178 1022 244 1038 q 99 994 113 1006 q 74 882 81 979 q 58 417 67 785 q 82 47 50 79 q 163 35 94 36 q 275 44 232 33 q 339 61 301 51 q 354 46 351 65 q 331 2 358 25 q 257 -36 303 -21 q 203 -47 222 -46 q 150 -42 183 -49 q 74 -31 96 -31 q 32 -12 49 -31 q 17 39 21 0 q 14 232 14 78 q 31 931 14 518 q 51 1035 33 1014 q 147 1079 68 1057 z "},"]":{"ha":368,"x_min":6,"x_max":357,"o":"m 61 1075 q 103 1101 90 1101 q 147 1088 110 1101 q 222 1058 185 1074 q 267 1036 260 1042 q 293 1029 275 1029 q 331 1017 313 1029 q 345 986 342 1008 q 350 890 349 964 q 343 610 351 774 q 344 276 335 433 q 356 57 356 101 q 349 7 356 13 q 253 -4 339 -3 q 136 -14 171 -6 q 99 -10 108 -19 q 88 26 88 0 q 100 53 89 51 q 117 53 103 53 q 158 56 131 54 q 207 60 186 58 l 303 65 l 300 179 q 300 471 299 293 q 289 953 306 931 q 213 992 279 964 q 119 1022 146 1019 q 97 1019 104 1024 q 82 1000 89 1015 q 51 960 69 976 q 25 951 33 944 q 18 1005 6 963 q 61 1075 31 1047 z "},"a":{"ha":679,"x_min":14,"x_max":668,"o":"m 594 904 q 622 910 614 907 q 649 894 632 913 q 667 861 667 875 q 655 829 667 840 q 614 814 643 818 q 578 797 585 806 q 543 629 560 771 q 533 400 526 488 q 553 304 539 328 q 606 278 567 281 q 638 272 631 276 q 646 253 644 267 q 650 217 647 228 q 640 201 651 208 q 612 194 628 194 q 585 197 596 193 q 550 207 569 207 q 510 238 535 207 q 485 286 485 268 q 475 317 485 301 q 466 324 469 325 q 456 311 463 324 q 314 221 421 251 q 197 203 235 196 q 122 224 154 210 q 81 257 89 239 q 42 322 68 281 q 17 375 21 354 q 14 471 14 396 q 19 571 14 544 q 44 646 24 597 q 102 753 67 700 q 165 826 138 806 q 332 884 235 881 q 488 838 429 888 q 508 831 500 828 q 539 861 515 835 q 594 904 572 899 m 436 814 q 335 833 403 836 q 221 806 268 831 q 166 758 193 790 q 106 659 139 725 q 65 554 74 593 q 77 392 49 482 q 150 281 106 301 q 307 276 214 250 q 392 319 364 292 q 446 415 419 346 q 465 470 458 446 q 474 524 471 494 q 481 608 476 553 q 482 694 482 660 q 476 752 482 729 q 462 789 471 775 q 436 814 453 803 z "},"b":{"ha":475,"x_min":14,"x_max":464,"o":"m 14 1054 l 14 1111 l 68 1111 l 69 1046 q 71 974 71 1008 q 82 881 71 969 q 93 539 94 790 q 96 333 93 382 q 106 275 99 283 q 130 267 114 267 q 194 275 146 267 q 283 297 260 286 q 344 340 307 307 q 385 398 368 363 q 410 479 401 433 q 419 576 419 525 q 415 647 419 624 q 394 704 410 671 q 361 761 375 744 q 328 785 347 778 q 271 792 308 792 q 215 786 233 792 q 168 764 196 781 q 131 744 140 747 q 118 749 121 742 q 139 813 103 788 q 258 849 175 839 q 326 851 300 850 q 372 837 351 851 q 407 801 393 822 q 438 736 421 779 q 455 688 450 707 q 461 644 460 669 q 463 571 463 619 q 431 369 463 443 q 325 249 400 296 q 193 210 275 217 q 138 197 147 207 q 96 188 129 188 q 53 199 63 189 q 42 476 42 210 q 28 869 42 746 q 14 1054 14 1001 z "},"c":{"ha":535,"x_min":10,"x_max":526,"o":"m 257 900 q 323 904 300 907 q 388 883 346 901 q 489 807 451 856 q 504 732 526 758 q 474 719 490 715 q 449 744 457 722 q 433 778 439 768 q 417 798 426 789 q 389 821 408 807 q 347 843 364 839 q 294 847 331 847 q 174 804 213 846 q 144 760 161 790 q 112 696 128 731 q 88 635 96 661 q 76 578 78 599 q 82 513 75 558 q 91 472 86 492 q 99 441 96 453 q 113 409 103 429 q 125 384 122 389 q 142 354 128 379 q 157 328 156 329 q 205 273 179 285 q 290 264 231 261 q 388 288 344 268 q 450 338 432 308 q 458 360 458 353 q 447 378 458 367 q 431 419 432 394 q 444 450 431 444 q 496 426 469 460 q 522 349 522 392 q 519 323 522 335 q 506 298 515 311 q 479 265 497 285 q 438 224 451 232 q 400 215 425 215 q 324 200 361 215 q 281 190 297 190 q 228 196 264 189 q 153 226 178 206 q 90 311 128 247 q 15 526 29 418 q 24 622 10 569 q 81 761 39 674 q 115 821 100 803 q 160 860 129 839 q 257 900 208 892 z "},"d":{"ha":611,"x_min":14,"x_max":607,"o":"m 453 1068 l 453 1111 l 528 1111 l 519 936 q 512 516 511 735 q 522 289 513 297 q 550 290 532 278 q 593 287 579 307 q 589 231 607 267 q 534 174 567 189 q 477 179 501 160 q 453 243 453 199 q 443 289 453 274 q 433 296 438 297 q 414 282 428 294 q 288 221 367 238 q 160 228 208 204 q 14 508 14 304 q 21 581 14 554 q 56 668 28 607 q 135 799 93 754 q 238 860 178 843 q 288 870 268 869 q 336 864 307 871 q 394 844 386 854 q 406 818 407 835 q 393 792 406 801 q 378 785 385 785 q 363 794 372 786 q 301 815 346 810 q 256 815 271 818 q 210 789 240 811 q 165 748 181 769 q 119 669 149 726 q 81 581 88 604 q 75 504 75 557 q 90 399 74 431 q 343 297 185 218 q 362 310 354 304 q 377 324 369 315 q 392 345 385 333 q 407 375 399 357 q 439 460 433 435 q 446 713 440 476 q 453 1068 451 949 z "},"e":{"ha":610,"x_min":13,"x_max":597,"o":"m 249 797 q 403 804 311 819 q 532 751 494 789 q 576 676 554 728 q 597 592 597 624 q 592 572 597 583 q 578 551 586 561 q 558 531 569 540 q 535 514 547 521 q 513 504 524 507 q 349 498 479 497 q 164 508 219 499 q 78 507 90 519 q 82 425 65 494 q 115 328 97 357 q 167 282 132 300 q 212 264 193 267 q 292 265 231 261 q 417 293 378 272 q 454 331 464 317 q 421 336 447 339 q 378 350 388 333 q 375 376 369 369 q 414 401 382 386 q 461 417 446 417 q 517 387 493 417 q 542 318 542 357 q 526 278 542 294 q 461 239 510 263 q 308 204 410 213 q 156 214 206 196 q 75 269 101 233 q 31 383 49 304 q 15 467 15 449 q 25 531 14 486 q 71 649 46 610 q 150 732 96 689 q 249 797 217 786 m 426 735 q 297 750 353 761 q 172 685 242 739 q 118 628 143 664 q 99 582 93 592 q 151 571 103 572 q 263 564 193 571 q 361 561 310 560 q 460 569 413 563 q 521 586 507 576 q 539 604 536 596 q 538 635 542 613 q 426 735 529 699 z "},"f":{"ha":635,"x_min":13,"x_max":629,"o":"m 358 1093 q 407 1108 381 1104 q 504 1111 433 1111 q 600 1108 583 1111 q 621 1092 617 1106 q 610 1049 628 1072 q 586 1006 592 1024 q 547 951 579 983 q 497 919 514 919 q 511 992 446 922 q 553 1056 553 1038 q 513 1080 553 1075 q 429 1071 472 1085 q 365 1042 382 1054 q 321 999 347 1031 q 284 931 301 976 q 255 831 267 885 q 240 732 243 778 l 239 678 l 290 675 q 410 681 335 671 q 466 686 453 688 q 486 675 479 685 q 496 636 499 658 q 493 623 494 626 q 483 617 492 619 q 464 613 475 614 q 425 613 453 613 q 300 610 346 613 l 242 608 l 242 571 q 265 432 243 524 q 315 267 288 340 q 328 227 328 238 q 319 207 329 217 q 306 181 306 192 q 292 169 306 169 q 266 196 281 169 q 251 242 251 222 q 243 282 251 260 q 213 394 233 307 q 185 539 193 481 l 174 610 l 104 615 q 14 647 14 621 q 19 661 14 654 q 32 672 24 668 q 57 676 40 675 q 106 678 74 678 l 182 678 l 188 736 q 209 864 193 794 q 240 968 225 933 q 291 1040 257 1004 q 358 1093 325 1075 z "},"g":{"ha":749,"x_min":-4,"x_max":738,"o":"m 615 846 q 655 869 640 864 q 696 872 669 874 q 728 866 721 869 q 736 850 736 863 q 728 835 736 840 q 696 828 721 831 q 674 825 681 826 q 661 820 667 824 q 654 813 656 817 q 651 800 653 808 q 640 760 647 775 q 623 643 638 751 q 604 526 608 535 q 583 433 594 510 q 567 275 572 357 q 551 152 561 193 q 524 86 542 111 q 482 22 508 68 q 453 -17 468 -3 q 408 -44 438 -31 q 341 -66 365 -64 q 257 -54 317 -68 q 74 33 151 -33 q 18 149 -4 100 q 54 168 29 172 q 74 160 69 167 q 81 133 79 154 q 104 79 85 100 q 184 31 126 56 q 286 1 242 7 q 338 1 321 -3 q 389 19 356 4 q 460 78 435 42 q 496 175 485 114 q 506 267 504 217 q 500 324 507 317 q 474 310 494 328 q 436 286 457 293 q 361 271 415 279 q 222 283 288 258 q 132 354 157 307 q 118 481 118 382 q 126 600 119 567 q 157 683 132 633 q 291 795 197 764 q 494 794 385 826 q 560 780 547 779 q 575 797 572 781 q 615 846 578 818 m 474 742 q 258 717 346 774 q 190 618 214 688 q 167 456 165 549 q 172 410 167 424 q 197 376 178 396 q 358 331 257 317 q 435 351 408 336 q 493 408 461 367 q 532 473 525 450 q 549 594 539 496 q 552 640 551 624 q 553 672 553 656 q 549 695 553 688 q 541 711 544 703 q 526 724 538 719 q 504 732 515 728 q 474 742 493 736 z "},"h":{"ha":642,"x_min":8,"x_max":640,"o":"m 49 1100 q 76 1111 49 1111 q 104 1110 104 1111 q 106 1094 104 1108 q 110 1051 107 1081 q 117 997 114 1021 q 131 813 131 886 q 139 736 131 736 q 168 764 147 736 q 256 822 199 808 q 378 814 314 835 q 421 792 403 804 q 453 764 439 781 q 481 722 468 747 q 499 621 496 693 q 496 353 503 549 q 522 199 492 210 q 579 221 542 193 q 613 238 604 239 q 628 210 622 236 q 558 124 639 164 q 526 111 538 113 q 497 118 515 110 q 449 156 471 129 q 431 193 435 174 q 426 271 428 213 q 438 426 426 357 q 443 576 449 493 q 435 651 440 631 q 414 696 431 672 q 349 748 390 729 q 274 760 308 767 q 194 703 240 754 q 149 619 149 651 q 135 576 149 597 q 111 463 111 540 q 99 306 113 440 q 85 186 90 208 q 61 149 79 164 q 38 132 44 133 q 22 138 31 131 q 19 190 10 151 q 72 607 57 333 q 63 1014 86 881 q 49 1100 49 1090 z "},"i":{"ha":210,"x_min":14,"x_max":199,"o":"m 14 1103 q 50 1111 14 1111 q 82 1105 75 1111 q 100 1068 89 1099 q 121 970 118 1014 q 110 910 124 926 q 60 926 67 863 l 58 961 q 36 1053 60 1008 q 14 1103 14 1094 m 117 817 q 160 814 138 842 q 163 789 172 801 q 138 715 151 776 q 115 572 125 654 q 100 421 104 490 q 112 337 99 376 q 150 276 125 297 q 169 243 169 257 q 183 210 169 229 q 197 115 197 192 q 182 17 197 38 q 129 8 160 -15 q 117 28 118 17 q 124 85 115 40 q 130 146 132 131 q 110 197 128 161 q 67 274 86 244 q 51 313 54 290 q 47 389 47 335 q 67 651 46 524 q 117 817 88 778 z "},"j":{"ha":610,"x_min":11,"x_max":601,"o":"m 488 899 q 538 934 519 928 q 579 928 557 940 q 597 900 600 917 q 588 892 594 893 q 544 860 574 892 q 515 814 515 829 q 513 794 515 804 q 508 776 511 785 q 501 761 506 768 q 493 750 497 754 q 485 746 489 746 q 474 715 478 746 q 465 593 469 685 q 451 375 461 454 q 431 250 443 315 q 408 135 419 185 q 390 72 397 86 q 378 33 378 44 q 350 -31 378 22 q 311 -93 322 -85 q 157 -103 299 -106 l 17 -100 l 14 -54 q 24 30 13 -12 q 51 82 35 72 q 81 78 67 92 q 94 42 94 65 q 113 -4 94 15 q 297 63 161 -53 q 333 114 321 82 q 369 257 344 146 q 418 701 411 444 q 418 713 418 706 q 424 806 419 782 q 438 846 428 829 q 485 896 449 863 q 488 899 486 897 z "},"k":{"ha":681,"x_min":13,"x_max":669,"o":"m 14 1100 q 20 1108 13 1106 q 46 1111 28 1111 q 74 1107 74 1110 q 63 1096 74 1106 q 33 1086 47 1085 q 14 1100 19 1088 m 168 1106 q 203 1111 168 1111 l 239 1111 l 242 1058 q 240 782 246 997 q 238 556 236 558 q 336 622 247 536 q 424 696 396 681 q 527 804 464 717 q 593 931 590 892 q 604 967 594 950 q 625 983 614 983 q 650 949 632 983 l 668 913 l 649 882 q 532 715 557 731 q 492 672 513 701 l 469 642 l 488 617 q 506 586 506 592 q 528 533 506 582 q 557 458 549 489 q 569 421 563 431 q 582 322 578 410 q 578 228 586 233 q 561 201 569 224 q 534 179 551 176 q 511 207 517 182 q 515 253 507 235 q 515 364 532 285 q 458 517 499 443 q 414 594 421 586 q 358 557 406 603 q 272 486 313 514 q 230 437 238 464 q 222 313 222 410 q 219 229 222 249 q 200 188 215 210 q 174 160 185 167 q 159 161 164 154 q 154 189 154 168 q 163 348 156 200 q 177 640 171 496 q 186 929 183 783 q 178 1082 189 1075 q 168 1106 168 1101 z "},"l":{"ha":275,"x_min":14,"x_max":278,"o":"m 194 1018 l 194 1111 l 221 1111 q 258 1054 276 1111 q 239 908 249 1021 q 226 667 229 796 q 185 268 219 443 q 180 215 178 236 q 180 169 182 193 q 168 124 178 144 q 83 -65 107 17 q 69 -98 76 -92 q 43 -104 63 -104 l 14 -104 l 21 -65 q 56 47 38 24 q 93 133 93 93 q 106 186 93 163 q 149 376 131 235 q 171 689 167 518 q 183 888 174 844 q 194 1018 194 924 z "},"m":{"ha":878,"x_min":6,"x_max":871,"o":"m 190 918 q 235 942 224 947 q 257 938 247 938 q 324 882 267 938 q 377 822 363 844 q 406 760 392 800 q 410 753 407 754 q 422 758 414 753 q 440 773 429 763 q 474 804 451 783 q 551 861 525 853 q 632 856 578 869 q 677 827 654 849 q 719 773 700 806 q 749 701 738 740 q 764 619 760 664 q 769 469 768 575 q 778 306 771 332 q 824 267 785 279 q 866 224 871 251 q 811 197 861 197 q 744 210 779 197 q 716 228 721 219 q 710 268 711 236 q 710 331 708 311 q 712 513 715 413 q 699 647 708 614 q 633 767 678 725 q 550 788 589 808 q 426 386 418 719 q 423 269 429 294 q 392 243 417 243 q 372 250 378 243 q 362 284 365 257 q 358 353 358 311 q 361 479 358 396 q 363 651 365 608 q 351 722 361 693 q 296 810 338 764 q 231 856 254 856 q 190 828 213 856 q 147 754 167 800 q 103 639 107 664 q 104 528 99 614 q 111 313 111 435 q 110 243 111 267 q 106 208 110 219 q 97 193 103 197 q 82 171 82 182 q 67 163 82 160 q 51 190 53 165 q 54 317 49 214 q 50 522 58 392 q 26 768 42 651 q 22 919 7 911 q 43 914 29 922 q 65 871 57 904 q 78 810 74 838 q 90 782 83 782 q 100 792 100 782 q 132 849 100 804 q 190 918 164 893 z "},"n":{"ha":671,"x_min":3,"x_max":660,"o":"m 151 942 q 197 922 165 978 q 247 776 231 865 q 274 690 264 693 q 285 704 279 689 l 293 739 q 329 840 304 788 q 383 922 354 892 q 419 950 406 944 q 463 956 432 956 q 509 949 497 956 q 547 913 521 943 q 611 807 583 867 q 632 757 626 775 q 639 716 638 739 q 640 642 640 693 q 629 418 640 533 q 624 310 622 331 q 639 271 625 290 q 658 239 658 243 q 635 213 658 229 q 599 197 613 197 q 568 218 574 197 q 572 532 558 251 q 572 538 572 535 q 576 675 578 646 q 560 744 574 704 q 503 841 536 806 q 440 875 471 876 q 389 833 408 874 q 368 792 376 806 q 349 742 364 786 q 321 651 335 697 q 304 600 307 604 q 301 490 300 588 q 294 308 304 386 q 290 269 292 283 q 285 242 288 254 q 279 223 283 231 q 271 210 275 215 q 258 196 267 204 q 234 177 240 179 q 221 183 228 175 q 224 276 210 197 q 238 453 239 360 q 221 610 238 546 q 197 724 206 672 q 173 808 190 771 q 140 846 156 846 q 76 821 125 846 q 37 804 49 807 q 18 808 25 801 q 47 860 4 822 q 111 910 89 899 q 151 942 144 928 z "},"o":{"ha":668,"x_min":10,"x_max":661,"o":"m 532 888 q 543 917 532 907 q 564 927 554 928 q 589 913 574 926 q 592 821 618 886 q 582 790 582 799 q 593 765 582 781 q 631 693 619 726 q 651 603 643 660 q 653 446 661 535 q 625 317 644 357 q 538 210 610 283 q 422 113 472 139 q 301 82 371 86 q 263 80 275 82 q 236 83 251 78 q 210 93 221 88 q 176 114 200 99 q 122 152 139 135 q 83 204 104 169 q 31 326 44 271 q 15 488 18 382 q 24 663 11 603 q 78 769 38 724 q 220 847 125 822 q 392 849 315 871 q 532 888 532 808 m 406 790 q 235 797 311 821 q 144 753 176 778 q 92 682 113 728 q 80 646 83 664 q 75 601 76 628 q 72 522 74 574 q 98 304 72 375 q 197 188 124 233 q 250 158 231 165 q 299 151 269 151 q 362 165 343 151 q 392 179 381 179 q 432 202 400 179 q 496 253 464 225 q 538 296 528 282 q 586 390 576 354 q 596 504 596 425 q 544 728 596 665 q 501 754 522 754 q 472 763 481 754 q 406 790 460 772 z "},"p":{"ha":538,"x_min":14,"x_max":526,"o":"m 26 961 q 81 974 32 974 q 140 963 129 975 q 156 890 149 950 q 169 824 161 829 q 210 832 175 819 q 325 843 258 853 q 428 801 392 833 q 494 692 463 769 q 525 560 525 614 q 501 405 525 488 q 447 296 476 322 q 367 265 425 276 q 279 261 310 253 q 231 266 250 269 q 201 247 211 263 q 186 201 190 231 q 150 4 171 101 q 108 -70 142 -36 q 42 -104 74 -104 l 14 -104 l 32 -68 q 50 -22 50 -33 q 69 4 50 -11 q 106 71 88 18 q 132 186 124 124 q 148 418 144 272 q 142 626 151 564 q 119 797 129 714 q 99 903 110 890 q 57 915 88 913 q 26 927 35 915 q 26 961 18 939 m 431 688 q 377 754 404 735 q 296 779 350 774 q 252 779 264 782 q 229 765 240 776 q 189 746 210 746 q 173 742 176 746 q 174 731 169 739 q 197 474 196 672 q 208 336 197 344 q 281 321 221 328 q 338 319 318 317 q 381 332 357 322 q 431 367 419 350 q 457 439 443 383 q 431 688 490 579 z "},"q":{"ha":836,"x_min":11,"x_max":829,"o":"m 272 843 q 394 842 329 853 q 489 804 458 831 q 506 799 497 796 q 533 824 514 803 q 565 849 554 844 q 597 850 575 853 q 640 834 631 843 q 643 803 649 825 q 633 782 639 786 q 608 779 626 778 q 572 771 582 783 q 553 678 564 763 q 524 468 549 644 q 508 297 507 368 q 525 140 508 225 q 542 89 532 104 q 583 46 551 74 l 631 6 l 690 14 q 819 -4 799 28 q 817 -62 828 -19 l 804 -104 l 525 -104 l 513 -79 q 491 2 503 -61 q 472 126 479 65 q 460 189 469 168 q 456 225 450 207 q 450 240 463 247 q 394 189 436 233 q 246 119 313 101 q 151 194 226 124 l 78 265 l 46 368 q 15 485 17 456 q 26 574 13 514 q 104 715 43 632 q 188 811 160 790 q 272 843 217 832 m 425 771 q 343 790 392 788 q 253 781 294 793 q 177 722 228 775 q 97 618 126 668 q 72 525 72 576 q 99 394 72 474 q 118 339 108 360 q 138 303 128 318 q 167 268 149 288 q 238 206 207 225 q 308 199 272 185 q 390 263 344 213 q 433 316 421 294 q 454 375 444 338 q 469 508 469 433 q 479 642 469 585 q 478 722 489 696 q 425 771 467 749 z "},"r":{"ha":782,"x_min":14,"x_max":772,"o":"m 74 864 q 108 886 94 882 q 149 888 121 890 q 197 874 179 886 q 215 840 215 861 q 228 819 215 829 q 247 760 240 810 q 261 704 251 710 q 272 714 264 703 q 288 743 279 725 q 317 793 300 769 q 356 835 335 817 q 397 861 376 853 q 553 885 454 886 q 682 858 651 885 q 706 846 694 846 q 728 833 717 846 q 750 796 740 819 q 764 747 760 772 q 769 696 771 708 q 758 672 768 683 q 718 656 740 653 q 698 665 703 658 q 690 696 693 672 q 674 742 688 718 q 641 785 660 767 q 601 811 622 804 q 506 817 572 821 q 447 808 467 814 q 404 786 426 801 q 345 723 374 765 q 317 657 317 681 q 297 624 315 638 q 281 590 285 615 q 272 461 276 564 q 267 258 272 435 q 260 210 265 226 q 240 176 256 194 q 218 153 224 156 q 201 163 213 151 q 190 184 190 172 q 200 236 189 196 q 220 397 215 300 q 219 583 225 494 q 197 739 213 671 q 160 818 181 807 q 74 797 107 847 q 61 667 42 746 q 96 598 74 614 q 153 600 118 582 q 174 603 176 613 q 146 568 172 594 q 99 539 114 535 q 76 544 85 544 q 38 617 61 544 q 14 744 14 689 q 28 808 14 781 q 74 864 42 835 z "},"s":{"ha":446,"x_min":13,"x_max":436,"o":"m 133 854 q 228 872 161 869 q 338 861 296 874 q 401 815 375 850 q 432 736 428 781 q 427 681 436 701 q 401 667 418 661 q 340 658 392 671 q 286 647 294 646 q 268 664 278 647 q 271 695 258 685 q 326 714 283 706 q 376 738 369 722 q 357 782 383 754 q 297 815 333 807 q 193 819 260 824 q 133 785 169 818 q 86 719 97 751 q 85 649 75 683 q 121 594 94 614 q 226 544 186 544 q 307 514 251 544 q 381 458 363 483 q 398 423 394 440 q 401 361 401 406 q 395 294 400 311 q 367 244 390 276 q 299 172 332 197 q 258 151 276 156 q 181 144 239 146 q 72 148 96 140 q 32 192 47 156 q 14 262 13 233 q 36 297 15 290 q 60 315 60 306 q 92 329 60 324 q 139 324 122 335 q 149 293 156 313 q 114 260 142 274 q 100 224 58 232 q 175 221 122 221 q 243 222 225 221 q 272 228 261 224 q 297 247 282 233 q 354 351 344 293 q 346 394 358 371 q 308 436 333 418 q 254 461 283 454 q 224 469 244 464 q 197 476 203 474 q 176 483 190 478 q 153 491 161 488 q 134 501 146 494 q 112 517 122 508 q 89 538 101 526 q 32 617 43 581 q 32 718 21 653 q 63 799 40 768 q 133 854 85 829 z "},"t":{"ha":474,"x_min":14,"x_max":463,"o":"m 103 1106 q 131 1111 108 1111 q 206 1056 153 1111 q 267 976 258 997 q 268 913 276 956 q 269 851 260 863 q 328 828 278 840 q 393 822 379 817 q 435 813 408 828 q 461 783 461 799 q 444 751 461 767 q 414 742 426 736 q 393 738 400 747 q 362 728 386 726 q 324 742 338 729 q 278 752 310 756 q 233 733 247 749 q 225 510 222 719 q 239 288 228 300 q 276 276 250 278 q 312 266 304 275 q 319 228 319 257 l 319 193 l 275 196 q 233 203 247 197 q 201 225 218 210 l 174 253 q 165 750 169 501 l 103 747 q 33 753 53 744 q 14 783 14 761 q 22 801 14 794 q 44 813 29 807 q 61 819 58 818 q 108 828 78 828 q 144 835 131 828 q 163 858 157 843 q 169 901 169 874 q 172 940 169 921 q 174 965 174 960 q 167 982 174 971 q 143 1013 161 993 q 121 1041 131 1026 q 106 1068 111 1056 q 99 1091 100 1081 q 103 1106 97 1101 z "},"u":{"ha":522,"x_min":13,"x_max":513,"o":"m 22 826 q 32 833 28 833 q 42 824 36 833 q 49 806 46 818 q 55 774 53 794 q 60 716 57 754 q 65 628 63 678 q 72 497 68 578 q 82 336 78 364 q 104 285 86 308 q 158 253 128 254 q 249 279 188 251 q 300 308 285 296 q 324 338 315 319 q 361 446 351 397 q 379 613 371 494 q 392 756 386 732 q 415 797 397 781 q 499 806 460 835 q 510 790 511 797 q 490 757 508 783 q 452 715 465 719 q 439 603 439 710 q 429 432 439 525 q 421 253 419 339 q 418 206 421 217 q 406 192 415 196 q 370 207 393 186 q 347 244 347 228 q 340 260 347 258 q 324 251 332 263 q 257 214 319 243 q 199 193 219 197 q 149 192 179 189 q 80 210 100 196 q 39 268 60 225 q 18 345 21 308 q 14 568 15 382 q 22 826 13 813 z "},"v":{"ha":615,"x_min":7,"x_max":606,"o":"m 553 886 q 588 908 574 913 q 603 872 603 903 q 583 818 604 838 q 561 786 561 796 q 481 636 561 767 q 461 588 461 604 q 438 525 461 572 q 388 364 388 426 q 379 331 388 335 q 369 306 369 325 q 364 281 369 297 q 350 249 358 265 q 331 215 342 232 q 311 185 321 197 q 276 163 292 161 q 260 192 260 165 q 246 274 260 214 q 222 401 231 340 q 200 511 214 468 q 136 728 183 553 q 109 788 121 776 q 61 800 97 800 q 15 815 22 800 q 36 853 8 829 q 78 874 65 874 q 101 883 92 874 q 167 831 128 910 q 204 725 188 788 q 232 635 214 692 q 263 530 250 578 q 282 426 275 482 q 314 317 300 317 q 333 356 324 317 q 467 706 379 529 q 533 851 533 839 q 553 886 533 860 z "},"w":{"ha":881,"x_min":8,"x_max":868,"o":"m 746 915 q 766 935 757 932 q 803 933 775 938 q 854 918 840 928 q 868 888 868 908 q 856 858 868 868 q 811 842 843 847 q 783 831 789 838 q 772 800 776 824 q 722 667 768 779 q 674 533 676 556 q 651 460 669 507 q 631 407 633 414 q 602 328 615 354 q 568 285 589 301 q 521 293 521 244 q 499 354 521 313 q 472 431 483 381 q 428 642 460 481 q 407 697 418 697 q 356 542 389 697 q 231 199 301 288 q 190 165 199 161 q 182 228 182 172 q 168 331 182 285 q 142 461 153 382 q 103 608 126 547 q 71 694 93 631 q 31 799 49 758 q 18 865 8 846 q 74 856 39 903 q 129 726 90 833 q 185 549 168 619 q 217 408 204 464 q 243 338 233 340 q 267 383 249 336 q 303 484 286 429 q 319 556 319 539 q 340 658 319 579 q 374 768 361 738 q 397 806 383 789 q 421 831 410 824 q 438 832 432 838 q 517 514 464 803 q 539 431 525 463 q 564 399 553 399 q 581 421 569 399 q 605 478 592 443 q 631 551 618 514 q 689 721 646 601 q 731 865 731 839 q 746 915 731 892 z "},"x":{"ha":700,"x_min":13,"x_max":689,"o":"m 108 989 q 154 1010 129 1013 q 203 982 179 1008 q 221 951 217 964 q 222 918 225 939 q 226 882 219 894 q 258 840 232 869 q 331 750 301 793 q 402 660 369 694 q 446 629 435 625 q 525 764 458 633 q 667 989 640 989 q 681 965 676 989 q 675 935 683 946 q 601 800 664 922 q 566 733 588 775 q 530 663 544 692 q 507 621 515 635 l 478 565 l 551 475 q 635 364 625 382 q 665 342 646 344 q 687 328 686 339 q 669 294 688 318 q 616 278 643 263 q 535 375 589 294 q 465 471 483 450 q 438 486 447 492 q 329 300 424 478 q 308 277 325 290 q 271 253 290 264 q 242 243 251 243 q 242 275 225 243 l 256 294 q 300 367 278 324 q 357 467 324 410 q 365 482 360 472 q 384 510 379 503 q 391 533 389 518 q 392 554 393 549 q 378 579 390 560 q 356 612 367 599 q 318 657 346 625 q 296 685 304 675 q 253 744 253 736 q 207 797 253 751 q 168 844 175 831 q 161 890 161 858 q 153 942 161 936 q 136 931 150 944 q 107 894 122 917 q 72 824 75 850 q 96 793 68 797 q 115 769 115 790 q 101 738 115 749 q 68 732 88 726 q 14 801 14 749 q 67 925 14 854 q 88 960 88 953 q 108 989 88 968 z "},"y":{"ha":615,"x_min":13,"x_max":606,"o":"m 36 847 q 90 874 57 869 q 143 863 122 878 q 189 752 160 849 q 228 581 218 656 q 269 456 235 532 q 311 357 303 385 q 317 342 313 347 q 326 338 322 336 q 375 430 335 340 q 415 537 415 519 q 438 599 415 554 q 507 749 493 707 q 525 789 513 768 q 551 824 538 810 q 575 838 565 838 q 597 824 586 838 q 601 806 604 815 q 581 778 599 797 q 551 732 551 744 q 543 701 551 718 q 490 578 521 661 q 446 467 460 494 q 419 396 424 414 q 404 365 413 371 q 397 340 397 361 q 378 293 397 322 q 360 256 360 267 q 326 175 360 247 q 274 71 292 103 q 221 10 263 51 q 178 -42 178 -32 q 161 -50 178 -49 q 128 -47 144 -51 q 108 -36 111 -43 q 115 8 101 -18 q 149 42 129 33 q 207 83 172 51 q 242 126 242 115 q 256 168 242 140 q 274 244 276 211 q 236 363 271 278 q 181 536 196 463 q 164 608 174 571 q 141 691 154 646 q 122 757 128 736 q 90 813 108 811 q 60 761 71 814 q 36 732 53 732 q 24 735 28 732 q 17 748 19 739 q 15 776 15 757 q 17 818 13 806 q 36 847 21 831 z "},"z":{"ha":640,"x_min":8,"x_max":629,"o":"m 76 758 q 113 790 76 772 q 167 806 149 808 q 261 788 175 804 q 422 778 331 775 q 525 768 514 781 q 517 719 538 751 q 453 650 497 688 q 383 579 403 608 q 283 453 369 554 q 163 285 164 315 q 565 247 163 271 q 597 245 582 247 q 619 241 611 243 q 628 236 628 239 q 610 192 626 222 q 585 161 593 161 q 514 181 578 161 q 440 197 485 190 q 357 205 394 203 q 262 210 319 207 q 176 214 204 213 q 93 222 107 218 q 78 242 79 226 q 97 293 75 263 q 122 333 122 324 q 221 465 122 343 q 371 642 319 588 q 424 702 424 697 q 325 711 424 707 q 197 728 229 717 q 167 732 176 735 q 136 707 158 729 q 96 643 104 672 q 85 618 92 624 q 57 613 78 613 q 17 628 26 613 q 21 681 8 644 q 54 732 33 718 q 76 758 76 747 z "},"{":{"ha":899,"x_min":3,"x_max":897,"o":"m 618 1039 q 676 1068 643 1063 q 785 1072 710 1074 q 840 1069 822 1071 q 867 1065 858 1068 q 881 1054 876 1061 q 850 1018 897 1028 q 783 1010 828 1014 q 678 994 717 1004 q 610 960 640 983 q 587 932 594 949 q 572 878 579 915 q 565 792 561 824 q 588 735 568 761 l 606 710 l 583 678 q 529 636 561 644 q 469 607 494 626 q 443 588 460 599 q 410 567 426 576 q 378 549 393 557 q 354 539 363 542 q 338 528 338 533 q 371 506 339 521 q 442 479 403 492 q 499 467 482 467 q 561 393 596 461 q 522 294 532 336 q 514 197 511 251 q 578 54 519 88 q 781 46 638 21 q 871 52 864 60 q 869 10 878 44 l 863 -25 l 758 -42 q 661 -54 681 -54 q 608 -40 642 -54 q 549 -22 564 -22 q 519 -5 533 -22 q 485 54 504 13 q 458 153 465 96 q 460 264 451 210 q 467 320 465 303 q 469 354 468 338 q 465 378 471 371 q 452 390 458 385 q 431 404 446 396 q 345 438 386 428 q 244 449 304 447 q 200 452 218 450 q 169 458 182 454 q 151 469 157 463 q 146 488 146 476 q 170 522 146 500 q 207 544 194 544 q 247 572 221 544 q 293 600 272 600 q 418 650 317 600 q 521 718 521 701 q 511 742 521 735 q 506 810 501 747 q 522 915 510 874 q 556 984 533 949 q 588 1019 578 1019 q 618 1039 597 1019 m 413 1092 q 492 1111 443 1111 q 535 1106 526 1111 q 557 1072 543 1101 q 576 1017 576 1033 q 588 983 576 1003 q 590 953 596 969 q 569 931 585 936 q 540 947 557 926 q 522 988 522 968 q 509 1018 522 1008 q 461 1033 496 1028 q 422 1033 433 1038 q 383 1003 410 1029 q 350 963 358 979 q 333 901 342 946 q 331 813 322 833 q 338 747 339 790 q 329 672 338 703 q 258 575 321 639 q 208 517 215 529 q 210 493 200 506 q 244 431 224 472 q 262 373 260 399 q 260 256 264 347 q 264 96 256 151 q 295 15 272 40 q 364 -15 318 -10 q 421 -8 408 -19 q 463 15 431 -1 q 514 54 490 28 q 546 74 533 78 q 558 42 558 71 q 547 -5 558 11 q 493 -54 536 -21 q 416 -94 447 -89 q 322 -81 385 -99 q 215 6 243 -57 q 190 218 188 68 q 185 369 193 325 q 149 443 176 413 q 127 461 136 456 q 107 469 118 467 q 75 471 96 471 q 36 475 47 471 q 19 490 25 479 q 33 540 4 518 q 143 583 63 563 q 206 607 185 594 q 247 644 228 619 q 267 690 264 667 q 271 808 271 713 q 286 969 272 942 q 340 1033 300 994 q 413 1092 379 1072 z "},"|":{"ha":13,"x_min":0,"x_max":0,"o":""},"}":{"ha":1114,"x_min":13,"x_max":1106,"o":"m 367 1092 l 354 1111 l 594 1111 l 629 1083 q 722 919 699 1029 q 728 862 729 888 q 718 783 728 836 q 710 689 704 696 q 738 682 714 682 q 933 638 772 682 q 1101 581 1093 593 q 1086 536 1104 574 q 1068 508 1078 519 q 1042 488 1058 497 q 1003 473 1025 479 q 950 461 982 467 q 785 408 869 449 q 707 344 701 367 q 724 198 725 282 q 703 57 722 114 q 672 -11 688 10 q 621 -50 656 -32 q 572 -85 586 -68 q 543 -101 560 -97 q 475 -104 526 -104 q 390 -94 407 -104 q 376 -47 374 -85 q 397 -14 379 -19 q 443 -28 415 -8 q 547 -22 482 -53 q 640 65 613 8 q 659 187 658 103 q 642 319 660 271 q 631 360 632 349 q 640 386 631 371 q 690 429 653 411 q 823 484 731 451 q 949 522 915 517 q 988 536 988 528 q 875 582 988 550 q 699 618 763 614 q 636 625 647 621 q 624 644 625 629 q 638 704 619 668 q 658 897 678 788 q 444 1069 625 1067 q 390 1074 403 1071 q 367 1092 376 1078 m 176 1081 q 212 1107 199 1103 q 274 1111 225 1111 l 339 1111 l 376 1064 q 424 987 410 1017 q 449 913 439 957 q 444 715 469 811 q 442 651 432 664 q 518 624 453 638 q 588 598 575 613 q 588 543 600 583 q 542 469 576 510 q 457 392 507 429 q 421 360 428 371 q 414 325 414 349 q 405 268 414 306 q 384 197 396 231 q 363 151 372 163 q 333 101 351 139 q 226 4 301 43 q 97 -19 151 -35 q 75 -10 83 -17 q 58 8 67 -4 q 36 47 49 21 q 15 100 17 89 q 24 128 13 111 q 88 140 49 168 q 100 126 99 132 q 93 106 101 119 q 92 61 79 81 q 133 42 104 42 q 183 51 157 42 q 233 75 210 60 q 269 108 256 90 q 322 209 301 150 q 342 319 342 268 q 347 373 343 360 q 365 399 350 386 q 396 417 389 417 q 465 467 408 417 q 522 528 522 517 q 478 557 522 543 q 396 594 435 571 q 360 630 367 613 q 367 671 354 647 q 386 735 378 690 q 394 814 394 779 q 367 953 394 879 q 310 1043 339 1028 q 275 1056 282 1057 q 269 1036 268 1054 q 265 1019 271 1025 q 243 1008 260 1014 q 202 987 214 1001 q 201 956 190 972 q 212 913 213 936 q 197 886 211 890 q 138 926 168 875 q 126 958 126 946 q 133 1001 125 971 q 176 1081 144 1047 z "},"~":{"ha":1175,"x_min":14,"x_max":1164,"o":"m 1128 672 q 1157 678 1146 704 q 1163 647 1161 667 q 1138 569 1164 610 q 1052 472 1117 538 q 967 394 988 407 q 922 363 949 385 q 822 324 893 336 q 700 325 751 313 q 602 368 657 336 q 507 439 547 400 q 449 487 479 467 q 390 517 418 507 q 343 524 363 526 q 257 485 310 519 q 174 413 204 450 q 114 288 140 372 q 88 189 88 203 q 68 156 88 172 q 51 144 56 144 q 32 156 46 144 q 14 181 14 172 q 53 300 14 188 q 94 406 81 383 q 160 479 108 429 q 358 606 278 593 q 381 606 372 606 q 399 604 389 607 q 421 596 410 601 q 450 581 432 590 q 563 499 501 551 q 665 426 622 446 q 764 407 708 407 q 858 417 825 407 q 924 453 892 426 q 1017 543 957 479 q 1128 672 1119 654 z "},"":{"ha":13,"x_min":0,"x_max":0,"o":""},"":{"ha":789,"x_min":10,"x_max":779,"o":"m 204 1049 q 268 1101 250 1090 q 310 1111 286 1111 l 346 1111 l 276 1046 q 199 953 204 978 q 199 827 193 925 q 214 700 204 729 q 235 642 218 685 l 244 615 l 340 618 l 438 622 l 438 542 l 282 540 l 286 469 l 289 399 l 244 358 q 183 290 201 319 l 167 261 l 190 253 q 317 243 213 243 q 461 228 419 243 q 556 218 492 218 q 675 229 619 218 q 719 224 701 235 q 731 209 731 215 q 722 185 732 203 l 708 158 l 590 154 q 446 161 474 150 q 300 181 419 174 q 57 213 74 193 q 65 238 51 219 q 124 303 78 257 q 172 353 156 335 q 201 388 188 371 q 217 418 214 404 q 220 445 219 432 q 218 479 221 458 l 210 531 l 140 540 q 44 551 72 553 q 26 551 32 550 q 19 558 21 553 q 14 578 17 564 q 28 619 11 611 q 100 618 46 628 q 165 613 161 606 q 154 672 171 618 q 138 856 138 728 l 136 985 l 204 1049 m 465 1086 l 431 1111 l 482 1111 q 528 1106 517 1111 q 563 1075 540 1101 q 605 1005 585 1050 q 625 935 625 960 q 647 872 625 918 q 663 845 657 854 q 676 833 668 836 q 688 831 683 831 q 708 836 693 832 q 736 842 722 840 q 765 842 760 846 q 774 817 771 839 q 773 781 778 788 q 743 774 768 774 q 679 754 715 774 q 630 740 646 736 q 618 771 614 744 q 601 844 624 796 q 579 910 579 894 q 565 969 579 939 q 526 1030 551 1000 q 465 1086 501 1060 z "},"":{"ha":13,"x_min":0,"x_max":0,"o":""},"":{"ha":610,"x_min":14,"x_max":600,"o":"m 318 864 q 357 882 346 882 q 383 864 368 882 q 388 802 407 840 q 333 764 368 764 q 299 776 310 764 q 288 817 288 789 q 294 844 288 835 q 318 864 300 854 m 318 615 q 340 615 328 626 q 343 557 357 601 q 276 413 329 513 q 250 358 264 389 q 201 296 239 335 q 126 231 164 257 q 78 178 90 206 q 71 104 67 150 q 76 73 72 85 q 85 52 79 61 q 101 35 90 43 q 170 -3 133 8 q 267 -19 207 -15 q 401 3 353 -25 q 490 108 450 31 q 508 147 503 133 q 514 174 513 160 q 513 203 515 189 q 503 235 508 226 q 488 243 499 243 q 447 258 469 243 q 422 268 432 267 q 389 263 411 269 q 339 233 360 254 q 311 186 318 213 q 316 161 307 167 q 339 169 325 156 q 374 183 350 178 q 403 169 404 190 q 365 76 401 146 q 331 47 353 56 q 293 50 308 39 q 263 106 285 57 q 238 161 242 156 q 228 207 219 183 q 263 253 238 231 q 319 294 289 275 q 377 324 350 313 q 414 335 404 335 q 461 321 435 335 q 487 312 478 313 q 507 318 496 311 q 530 322 521 326 q 563 292 539 318 q 597 231 594 257 q 576 146 600 204 q 538 68 565 115 q 484 -18 511 21 q 446 -62 457 -57 q 385 -87 432 -69 q 331 -99 356 -99 q 243 -94 307 -100 q 142 -76 167 -86 q 71 -25 117 -67 q 26 37 38 3 q 14 140 14 71 q 35 222 14 188 q 114 303 57 257 q 192 384 161 340 q 269 522 224 428 q 318 615 308 601 z "},"":{"ha":13,"x_min":0,"x_max":0,"o":""},"":{"ha":13,"x_min":0,"x_max":0,"o":""},"":{"ha":13,"x_min":0,"x_max":0,"o":""},"":{"ha":575,"x_min":11,"x_max":567,"o":"m 371 1043 q 399 1017 397 1075 q 399 985 400 1003 q 414 760 394 893 q 460 568 433 626 q 478 508 468 549 q 525 328 499 424 q 558 221 551 232 q 558 176 567 207 q 535 131 550 146 q 518 129 526 125 q 503 148 510 133 q 497 178 497 163 q 481 251 497 199 q 451 360 463 306 q 426 452 443 411 q 393 507 410 493 q 308 514 378 519 q 248 512 258 510 q 232 533 238 514 q 242 578 221 563 q 318 594 263 593 q 378 604 378 594 q 360 759 378 613 q 342 939 342 906 q 332 974 342 971 q 321 957 325 975 l 319 954 q 217 581 282 788 q 161 421 193 500 q 129 311 129 339 q 114 251 129 279 q 71 207 99 224 q 26 199 39 188 q 15 223 13 210 q 35 258 17 236 q 103 401 51 279 q 168 572 156 522 q 191 649 174 596 q 214 722 208 703 q 288 1019 288 1000 q 302 1044 288 1038 q 338 1040 317 1050 q 371 1043 358 1029 z "},"":{"ha":704,"x_min":1,"x_max":694,"o":"m 182 1069 l 233 1111 l 346 1111 q 425 1110 401 1111 q 464 1103 449 1108 q 501 1086 479 1099 q 559 1049 536 1067 q 602 1006 582 1031 q 650 942 622 982 q 688 878 682 894 q 689 843 694 863 q 635 857 672 786 l 625 876 q 354 1063 543 1044 q 253 1047 297 1067 q 193 1011 207 1029 q 144 953 179 994 q 83 806 100 900 q 78 590 65 711 q 156 363 92 457 l 189 311 l 253 311 q 339 322 300 313 q 421 353 378 331 q 519 414 464 375 q 622 474 615 482 q 635 436 629 468 q 635 410 638 417 q 615 397 632 404 q 543 351 593 389 q 485 308 493 314 q 438 261 461 294 q 410 200 415 228 q 449 143 408 179 q 481 110 476 119 q 479 89 486 101 q 467 57 467 69 q 431 3 467 44 q 394 -57 394 -39 q 372 -85 394 -74 q 326 -93 350 -97 q 351 7 272 -85 q 383 45 372 31 q 399 70 394 60 q 401 85 404 81 q 388 94 397 90 q 342 121 363 103 q 321 153 321 139 q 340 207 321 172 q 354 250 358 244 q 281 244 349 254 q 174 246 207 233 q 110 307 142 258 q 25 534 49 400 q 24 795 1 668 q 106 999 46 922 q 182 1069 132 1031 z "},"":{"ha":726,"x_min":10,"x_max":715,"o":"m 242 1101 q 421 1108 272 1108 q 582 1099 569 1107 q 592 1075 592 1092 q 583 1051 593 1058 q 403 1043 571 1046 q 249 1038 290 1042 q 164 1021 208 1035 q 83 989 96 1000 q 68 832 74 979 q 65 708 64 735 q 75 674 67 682 q 264 665 90 661 q 464 651 451 669 q 461 638 465 644 q 403 609 450 618 q 246 596 356 600 q 89 578 94 589 q 88 439 82 569 q 107 296 92 313 q 147 283 117 286 q 268 279 176 281 q 494 282 422 276 q 562 283 549 285 q 575 271 575 282 q 558 233 575 254 q 531 217 547 221 q 469 210 514 213 q 378 204 410 204 q 332 204 361 204 q 122 211 154 208 q 75 229 90 214 q 71 233 72 232 l 43 257 l 40 394 q 26 586 38 532 q 19 761 18 626 q 17 947 21 896 q 18 1029 11 1011 q 54 1047 25 1047 q 142 1069 82 1047 q 242 1101 215 1094 m 675 403 q 699 415 685 415 q 714 403 713 415 q 708 396 715 400 q 690 392 700 392 q 669 391 671 389 q 675 403 667 393 z "},"":{"ha":13,"x_min":0,"x_max":0,"o":""},"":{"ha":13,"x_min":0,"x_max":0,"o":""},"":{"ha":13,"x_min":0,"x_max":0,"o":""},"":{"ha":13,"x_min":0,"x_max":0,"o":""},"":{"ha":13,"x_min":0,"x_max":0,"o":""},"":{"ha":593,"x_min":8,"x_max":583,"o":"m 24 1078 q 161 942 49 1143 q 192 885 176 915 q 244 792 233 804 q 264 754 257 778 q 311 654 268 738 q 365 528 351 575 q 390 470 374 501 q 422 419 406 439 q 443 406 438 400 q 460 563 450 413 q 482 792 469 717 q 500 932 497 876 q 554 1051 506 1019 q 581 1032 582 1069 l 571 968 q 548 839 558 925 q 528 713 538 753 q 511 549 514 657 q 461 276 503 383 q 400 311 438 217 q 369 381 379 364 q 321 493 365 389 q 268 608 276 597 q 193 754 253 633 q 93 919 113 918 l 90 918 q 94 864 83 911 q 100 747 106 818 q 93 572 93 656 q 81 407 92 464 q 57 285 72 369 q 29 208 43 208 q 19 214 25 208 q 21 300 10 224 q 44 635 40 433 q 31 961 47 838 q 24 1078 18 1063 z "},"":{"ha":13,"x_min":0,"x_max":0,"o":""},"":{"ha":13,"x_min":0,"x_max":0,"o":""},"":{"ha":13,"x_min":0,"x_max":0,"o":""},"":{"ha":13,"x_min":0,"x_max":0,"o":""},"":{"ha":13,"x_min":0,"x_max":0,"o":""},"":{"ha":13,"x_min":0,"x_max":0,"o":""},"":{"ha":13,"x_min":0,"x_max":0,"o":""},"":{"ha":13,"x_min":0,"x_max":0,"o":""},"":{"ha":13,"x_min":0,"x_max":0,"o":""},"":{"ha":514,"x_min":14,"x_max":503,"o":"m 319 1083 q 345 1101 335 1100 q 372 1086 356 1101 q 388 1053 390 1071 q 365 1029 386 1036 q 292 979 343 1021 q 229 940 240 938 q 217 971 219 943 q 222 999 215 989 q 258 1032 229 1010 q 319 1083 299 1060 m 167 867 q 274 854 182 883 q 374 796 333 835 q 426 727 410 760 q 447 643 442 694 q 461 540 456 581 q 460 442 471 486 q 456 344 450 393 q 481 274 461 294 l 501 253 l 482 211 q 455 172 465 176 q 432 189 444 168 q 381 199 415 215 q 315 165 333 174 q 276 153 296 157 q 239 156 256 150 q 154 191 207 160 q 71 256 101 222 q 33 324 53 275 q 14 401 14 374 q 37 471 14 425 q 88 549 60 517 q 149 586 117 581 q 199 600 183 590 q 299 600 213 608 q 392 597 385 592 q 393 638 401 608 q 360 705 385 667 q 311 763 335 743 q 232 790 286 781 q 178 796 193 797 q 138 781 163 794 q 95 772 106 765 q 89 815 85 779 q 96 847 90 840 q 126 856 101 853 q 167 867 158 861 m 349 522 q 260 535 322 533 q 164 525 199 536 q 103 482 129 515 q 78 414 78 449 q 92 331 78 360 q 144 276 106 303 q 239 238 193 244 q 319 251 285 231 q 369 271 356 271 q 399 292 392 271 q 406 385 406 314 q 397 483 406 461 q 349 522 388 506 z "},"":{"ha":13,"x_min":0,"x_max":0,"o":""},"":{"ha":13,"x_min":0,"x_max":0,"o":""},"":{"ha":13,"x_min":0,"x_max":0,"o":""},"":{"ha":497,"x_min":3,"x_max":489,"o":"m 93 1086 q 106 1093 97 1093 q 143 1049 111 1093 q 189 978 175 1006 q 249 899 201 953 q 307 846 297 846 q 365 826 315 846 q 438 775 415 808 q 461 719 449 758 q 481 642 474 679 q 483 599 488 606 q 438 567 478 590 l 397 543 l 260 553 q 90 558 100 564 q 86 544 86 557 q 157 400 86 472 l 204 350 l 257 357 q 351 367 269 357 q 426 364 394 372 q 460 338 457 356 q 438 306 463 315 q 339 288 413 296 q 172 283 206 272 q 110 340 156 288 q 69 397 82 372 q 42 471 56 422 q 17 688 3 608 q 58 762 22 714 q 110 810 94 810 q 132 815 117 810 q 161 826 147 819 q 185 840 175 833 q 196 851 196 847 q 149 945 196 861 q 94 1033 103 1029 q 87 1059 88 1039 q 93 1086 86 1079 m 357 754 q 260 780 311 778 q 174 763 210 782 q 81 679 104 726 q 73 658 72 663 q 85 646 74 653 q 251 631 103 636 q 379 628 353 626 q 414 640 406 629 q 424 660 424 650 q 414 693 424 669 q 395 728 407 717 q 357 754 383 740 z "},"":{"ha":486,"x_min":13,"x_max":490,"o":"m 222 1025 q 313 1074 308 1074 q 343 1055 318 1075 q 368 1029 368 1035 q 307 993 368 1021 q 208 933 243 961 q 163 903 175 906 q 140 919 150 901 q 140 967 125 949 q 222 1025 154 986 m 158 847 q 216 869 193 865 q 306 874 239 874 q 410 860 392 874 q 457 772 429 847 q 460 626 490 675 q 331 567 429 576 q 284 559 306 564 q 253 553 263 554 q 224 552 244 551 q 168 560 203 553 q 81 560 96 571 q 67 481 67 549 q 72 424 67 442 q 93 379 76 406 q 158 304 131 324 q 232 282 186 285 q 350 297 290 278 q 467 296 460 332 q 444 258 469 283 q 404 233 419 233 q 317 215 390 233 q 195 206 236 196 q 101 267 154 215 q 29 363 47 324 q 14 419 15 392 q 19 554 13 447 q 42 738 28 704 q 158 847 68 800 m 396 786 q 367 806 382 803 q 297 810 353 810 q 190 796 231 810 q 121 749 150 782 q 87 694 100 725 q 82 656 74 663 q 157 636 92 647 q 276 635 224 624 q 357 644 326 644 q 406 661 386 644 q 422 683 419 672 q 419 721 424 693 q 396 786 413 763 z "},"":{"ha":13,"x_min":0,"x_max":0,"o":""},"":{"ha":13,"x_min":0,"x_max":0,"o":""},"":{"ha":13,"x_min":0,"x_max":0,"o":""},"":{"ha":13,"x_min":0,"x_max":0,"o":""},"":{"ha":13,"x_min":0,"x_max":0,"o":""},"":{"ha":13,"x_min":0,"x_max":0,"o":""},"":{"ha":626,"x_min":8,"x_max":643,"o":"m 192 1100 q 222 1103 199 1121 q 242 1081 235 1093 q 250 1056 250 1064 q 242 1032 250 1049 q 182 1001 210 975 q 174 1026 172 1013 q 192 1100 175 1039 m 460 1032 q 489 1047 472 1047 q 521 1029 506 1046 q 532 1007 531 1017 q 529 976 533 997 q 517 949 524 956 q 497 942 511 942 q 476 949 483 942 q 461 981 469 957 q 453 1014 453 1004 q 460 1032 453 1024 m 263 864 q 355 885 339 885 q 429 874 371 886 q 483 855 468 865 q 497 826 497 844 q 521 810 497 810 q 557 786 540 810 q 596 701 574 763 q 579 408 642 572 q 535 326 556 347 q 433 256 514 304 q 340 196 369 215 q 272 169 313 178 q 206 168 231 160 q 128 216 179 178 q 64 274 76 254 q 29 363 50 293 q 16 511 10 436 q 56 690 22 586 q 76 751 71 735 q 91 783 82 768 q 107 803 100 799 q 131 817 114 808 q 263 864 167 838 m 469 788 q 428 818 463 807 q 360 826 393 829 q 240 799 326 826 q 142 757 154 771 q 101 676 124 733 q 74 586 78 619 q 93 357 54 449 q 218 244 132 265 q 299 248 260 233 q 422 319 339 263 q 533 413 506 375 q 572 529 560 450 q 577 590 579 571 q 561 654 575 610 q 510 744 540 719 q 469 788 478 767 z "},"":{"ha":13,"x_min":0,"x_max":0,"o":""},"":{"ha":13,"x_min":0,"x_max":0,"o":""},"":{"ha":13,"x_min":0,"x_max":0,"o":""},"":{"ha":517,"x_min":10,"x_max":511,"o":"m 338 1010 q 351 1097 346 1083 q 371 1111 356 1111 l 393 1111 l 388 1014 q 356 882 378 882 q 338 896 349 883 q 338 1010 326 908 m 125 1083 q 161 1093 143 1115 q 172 1049 172 1076 q 186 997 172 1015 q 199 962 201 978 q 174 925 196 946 q 142 910 150 903 q 131 960 133 917 q 122 1029 129 997 q 125 1083 115 1064 m 42 831 q 60 837 46 839 q 78 824 74 835 q 71 736 83 811 q 69 533 60 665 q 89 379 79 422 q 119 311 99 336 q 144 294 135 296 q 183 299 153 292 q 299 376 236 311 q 382 503 363 440 q 408 678 394 540 q 417 744 414 719 q 423 786 419 769 q 430 808 426 803 q 438 814 433 814 q 454 796 450 814 q 469 764 457 778 q 469 686 481 750 q 451 540 460 632 q 451 460 447 479 q 478 394 454 440 q 501 311 511 331 q 489 278 493 292 q 450 294 478 243 l 438 319 q 403 383 411 378 q 394 381 400 385 q 378 367 388 376 q 361 344 369 357 q 142 224 282 235 q 106 226 117 221 q 75 260 96 232 q 35 340 46 297 q 17 485 24 383 q 18 692 10 581 q 42 831 26 803 z "},"":{"ha":13,"x_min":0,"x_max":0,"o":""},"":{"ha":189,"x_min":6,"x_max":178,"o":"m 74 911 l 72 1111 l 147 1111 l 147 961 q 149 861 147 892 q 153 816 150 831 q 164 793 157 801 q 176 769 176 779 q 163 719 176 760 q 63 600 128 618 q 16 603 25 590 q 33 640 7 615 q 51 672 51 657 q 64 699 51 688 q 74 911 75 710 z "},"":{"ha":404,"x_min":8,"x_max":396,"o":"m 238 388 q 257 400 243 397 q 307 403 271 403 q 363 399 353 403 q 382 371 372 394 q 390 284 396 339 q 361 183 383 229 q 295 72 314 90 q 235 60 276 53 q 198 78 200 65 q 226 107 196 92 q 273 138 258 124 q 307 186 288 151 q 324 239 331 229 q 274 242 318 249 q 213 246 225 235 q 215 293 200 257 q 229 350 229 328 q 238 388 229 372 m 61 383 q 76 387 67 385 q 86 389 86 389 q 125 365 93 389 q 151 338 147 349 q 151 282 154 326 q 110 144 147 222 q 47 63 74 65 q 16 70 22 58 q 26 103 10 82 q 60 158 47 135 q 71 185 71 181 q 58 193 71 190 q 24 211 32 201 q 17 239 15 221 q 22 314 21 271 q 32 365 25 353 q 61 383 39 378 z "},"":{"ha":506,"x_min":11,"x_max":494,"o":"m 33 1078 q 51 1106 43 1101 q 83 1111 58 1111 l 121 1111 l 97 1057 q 77 987 78 1006 q 96 933 76 968 q 171 868 117 899 q 215 840 203 851 q 226 817 226 829 q 131 824 226 765 q 57 883 82 853 q 21 956 32 914 q 15 1014 13 989 q 33 1078 18 1039 m 361 1049 l 356 1111 l 419 1111 l 419 1057 q 436 960 421 1011 q 475 875 451 910 q 486 855 482 865 q 492 835 490 844 q 493 819 494 826 q 488 809 492 813 q 478 806 483 806 q 458 819 471 806 q 431 851 444 832 q 403 894 417 871 q 383 938 390 918 q 361 1049 367 985 z "},"":{"ha":13,"x_min":0,"x_max":0,"o":""},"":{"ha":793,"x_min":7,"x_max":804,"o":"m 351 1058 l 404 1111 l 519 1111 q 657 1096 636 1111 q 713 1026 686 1078 q 753 911 739 975 q 765 840 765 853 q 751 814 765 828 q 700 853 715 776 q 693 889 696 868 q 658 1000 683 963 q 603 1047 633 1036 q 506 1054 572 1058 q 347 972 383 1047 q 319 880 333 943 q 311 808 306 817 q 340 800 315 800 q 444 794 357 800 q 517 794 492 792 q 569 806 542 796 q 622 816 615 822 q 571 754 629 810 l 513 699 l 457 706 q 351 714 401 713 l 300 714 l 293 642 q 293 563 285 571 q 439 551 301 554 q 578 540 550 549 q 607 503 607 532 q 578 467 607 472 q 413 468 549 461 q 397 468 408 468 q 319 463 328 472 q 326 392 310 453 q 329 381 328 385 q 383 251 354 285 q 479 211 413 218 q 572 219 539 206 q 643 281 607 233 q 699 383 679 328 q 735 463 718 439 q 751 478 744 476 q 765 472 757 481 q 744 321 804 440 q 716 272 729 292 q 686 234 703 251 q 644 194 669 217 q 562 134 589 144 q 483 129 535 124 q 394 147 422 135 q 344 186 367 158 q 302 251 314 224 q 272 351 290 279 q 242 447 250 438 q 133 456 232 458 q 51 455 71 453 q 22 467 31 457 q 17 508 7 485 q 50 529 28 531 q 218 536 199 517 q 234 630 232 550 q 224 718 236 710 q 167 731 213 725 q 110 747 125 736 q 97 781 94 758 q 108 801 99 799 q 169 803 118 804 l 240 800 l 254 853 q 297 986 282 954 q 351 1058 313 1018 z "}}}
